<?xml version="1.0" standalone="no"?>
<!DOCTYPE svg PUBLIC "-//W3C//DTD SVG 20010904//EN"
 "http://www.w3.org/TR/2001/REC-SVG-20010904/DTD/svg10.dtd">
<svg version="1.0" xmlns="http://www.w3.org/2000/svg"
 width="386.000000pt" height="379.000000pt" viewBox="0 0 386.000000 379.000000"
 preserveAspectRatio="xMidYMid meet">
<metadata>
Created by potrace 1.11, written by Peter Selinger 2001-2013
</metadata>
<g transform="translate(0.000000,379.000000) scale(0.100000,-0.100000)"
fill="#000000" stroke="none">
<path d="M1360 3410 l0 -100 -200 0 -200 0 0 -100 0 -100 -100 0 -100 0 0
-100 0 -100 -100 0 -100 0 0 -200 0 -200 -100 0 -100 0 0 -595 0 -595 100 0
100 0 0 -100 0 -100 100 0 100 0 0 -200 0 -200 100 0 100 0 0 -100 0 -100 100
0 100 0 0 -100 0 -100 800 0 800 0 0 100 0 100 100 0 100 0 0 100 0 100 100 0
100 0 0 200 0 200 100 0 100 0 0 100 0 100 100 0 100 0 0 595 0 595 -100 0
-100 0 0 200 0 200 -100 0 -100 0 0 100 0 100 -100 0 -100 0 0 100 0 100 -200
0 -200 0 0 100 0 100 -600 0 -600 0 0 -100z m400 -200 l0 -100 -100 0 -100 0
0 -100 0 -100 -300 0 -300 0 0 100 0 100 200 0 200 0 0 100 0 100 200 0 200 0
0 -100z m800 0 l0 -100 200 0 200 0 0 -100 0 -100 -300 0 -300 0 0 100 0 100
-100 0 -100 0 0 100 0 100 200 0 200 0 0 -100z m-1790 -795 l0 -95 95 0 95 0
0 -205 0 -205 -100 0 -100 0 0 -100 0 -100 -100 0 -100 0 0 400 0 400 105 0
105 0 0 -95z m1590 0 l0 -95 100 0 100 0 0 -305 0 -305 -100 0 -100 0 0 -100
0 -100 -400 0 -400 0 0 100 0 100 -100 0 -100 0 0 305 0 305 100 0 100 0 0 95
0 95 400 0 400 0 0 -95z m1000 -305 l0 -400 -100 0 -100 0 0 100 0 100 -100 0
-100 0 0 205 0 205 100 0 100 0 0 95 0 95 100 0 100 0 0 -400z m-1800 -995 l0
-195 100 0 100 0 0 195 0 195 200 0 200 0 0 -195 0 -195 100 0 100 0 0 195 0
195 200 0 200 0 0 -100 0 -100 100 0 100 0 0 -195 0 -195 -100 0 -100 0 0 -98
0 -99 -152 -6 c-83 -4 -375 -7 -648 -7 -273 0 -565 3 -648 7 l-152 6 0 99 0
98 -100 0 -100 0 0 195 0 195 100 0 100 0 0 100 0 100 200 0 200 0 0 -195z"/>
</g>
</svg>
