<?xml version="1.0" encoding="UTF-8" standalone="no"?>
<svg
   xmlns:dc="http://purl.org/dc/elements/1.1/"
   xmlns:cc="http://creativecommons.org/ns#"
   xmlns:rdf="http://www.w3.org/1999/02/22-rdf-syntax-ns#"
   xmlns:svg="http://www.w3.org/2000/svg"
   xmlns="http://www.w3.org/2000/svg"
   xmlns:sodipodi="http://sodipodi.sourceforge.net/DTD/sodipodi-0.dtd"
   xmlns:inkscape="http://www.inkscape.org/namespaces/inkscape"
   version="1.0"
   width="386.000000pt"
   height="379.000000pt"
   viewBox="0 0 386.000000 379.000000"
   preserveAspectRatio="xMidYMid meet"
   id="svg2"
   inkscape:version="0.48.4 r9939"
   sodipodi:docname="img1.svg">
  <defs
     id="defs12" />
  <sodipodi:namedview
     pagecolor="#ffffff"
     bordercolor="#666666"
     borderopacity="1"
     objecttolerance="10"
     gridtolerance="10"
     guidetolerance="10"
     inkscape:pageopacity="0"
     inkscape:pageshadow="2"
     inkscape:window-width="1920"
     inkscape:window-height="1058"
     id="namedview10"
     showgrid="false"
     inkscape:zoom="0.99630607"
     inkscape:cx="232.35965"
     inkscape:cy="239.22475"
     inkscape:window-x="0"
     inkscape:window-y="0"
     inkscape:window-maximized="1"
     inkscape:current-layer="g6" />
  <metadata
     id="metadata4">
Created by potrace 1.11, written by Peter Selinger 2001-2013
<rdf:RDF>
  <cc:Work
     rdf:about="">
    <dc:format>image/svg+xml</dc:format>
    <dc:type
       rdf:resource="http://purl.org/dc/dcmitype/StillImage" />
  </cc:Work>
</rdf:RDF>
</metadata>
  <g
     transform="translate(0.000000,379.000000) scale(0.100000,-0.100000)"
     fill="#000000"
     stroke="none"
     id="g6">
    <path
       d="m 1351.9703,3297.5847 0,-100 -200,0 -199.99996,0 0,-100 0,-100 -100,0 -100,0 0,-100 0,-100 -100,0 -100,0 0,-200 0,-200 -100,0 -100,0 0,-595 0,-595 100,0 100,0 0,-100 0,-100 100,0 100,0 0,-199.99995 0,-200 100,0 100,0 0,-100 0,-100 99.99996,0 100,0 0,-100 0,-100 800,0 800,0 0,100 0,100 100,0 100,0 0,100 0,100 100,0 100,0 0,200 0,199.99995 100,0 100,0 0,100 0,100 100,0 100,0 0,595 0,595 -100,0 -100,0 0,200 0,200 -100,0 -100,0 0,100 0,100 -100,0 -100,0 0,100 0,100 -200,0 -200,0 0,100 0,100 -600,0 -600,0 0,-100 z m 400,-200 0,-100 -100,0 -100,0 0,-100 0,-100 -300,0 -299.99996,0 0,100 0,100 199.99996,0 200,0 0,100 0,100 200,0 200,0 0,-100 z m 800,0 0,-100 200,0 200,0 0,-100 0,-100 -300,0 -300,0 0,100 0,100 -100,0 -100,0 0,100 0,100 200,0 200,0 0,-100 z m -1789.99996,-795 0,-95 95,0 95,0 0,-205 0,-205 -100,0 -100,0 0,-100 0,-100 -100,0 -100,0 0,400 0,400 105,0 105,0 0,-95 z m 1589.99996,0 0,-95 100,0 100,0 0,-305 0,-305 -100,0 -100,0 0,-100 0,-100 -400,0 -400,0 0,100 0,100 -100,0 -100,0 0,305 0,305 100,0 100,0 0,95 0,95 400,0 400,0 0,-95 z m 1000,-305 0,-400 -100,0 -100,0 0,100 0,100 -100,0 -100,0 0,205 0,205 100,0 100,0 0,95 0,95 100,0 100,0 0,-400 z m -1800,-995 0,-194.99995 100,0 100,0 0,194.99995 0,195 200,0 200,0 0,-195 0,-194.99995 100,0 100,0 0,194.99995 0,195 200,0 200,0 0,-100 0,-99.99995 100,0 100,0 0,-195 0,-195 -100,0 -100,0 0,-98 0,-99 -152,-6 c -83,-4 -375,-7 -648,-7 -273,0 -565,3 -648,7 l -152,6 0,99 0,98 -100,0 -99.99996,0 0,195 0,195 99.99996,0 100,0 0,99.99995 0,100 200,0 200,0 0,-195 z"
       id="path8"
       inkscape:connector-curvature="0"
       style="fill:#bb0202;fill-opacity:1" />
  </g>
</svg>
