<?xml version="1.0" encoding="UTF-8" standalone="no"?>
<!-- Created with Inkscape (http://www.inkscape.org/) -->

<svg
   xmlns:dc="http://purl.org/dc/elements/1.1/"
   xmlns:cc="http://creativecommons.org/ns#"
   xmlns:rdf="http://www.w3.org/1999/02/22-rdf-syntax-ns#"
   xmlns:svg="http://www.w3.org/2000/svg"
   xmlns="http://www.w3.org/2000/svg"
   xmlns:sodipodi="http://sodipodi.sourceforge.net/DTD/sodipodi-0.dtd"
   xmlns:inkscape="http://www.inkscape.org/namespaces/inkscape"
   id="svg2"
   version="1.1"
   inkscape:version="0.48.4 r9939"
   width="554.18939"
   height="552.72156"
   xml:space="preserve"
   sodipodi:docname="marioo.svg"><metadata
     id="metadata8"><rdf:RDF><cc:Work
         rdf:about=""><dc:format>image/svg+xml</dc:format><dc:type
           rdf:resource="http://purl.org/dc/dcmitype/StillImage" /><dc:title></dc:title></cc:Work></rdf:RDF></metadata><defs
     id="defs6"><clipPath
       clipPathUnits="userSpaceOnUse"
       id="clipPath16"><path
         d="m 97.262,123.717 -77.083,0 0,-107.7 77.083,0 0,107.7 z"
         id="path18"
         inkscape:connector-curvature="0" /></clipPath><clipPath
       clipPathUnits="userSpaceOnUse"
       id="clipPath24"><path
         d="m 12.255,127.859 319.136,0 0,-149.483 -319.136,0 0,149.483 z"
         id="path26"
         inkscape:connector-curvature="0" /></clipPath><clipPath
       clipPathUnits="userSpaceOnUse"
       id="clipPath32"><path
         d="m 23.151,21.6 -1.891,96.624 8.555,4.412 61.143,-1.621 -1.17,-96.083 -6.754,-7.924 -59.883,4.592 m 77.533,90.951 1.351,0.45 61.233,0.27 3.242,-1.981 0.18,-15.849 c 0,0 6.535,-0.064 11.737,-2.437 5.062,-2.309 9.065,-7.018 9.065,-7.018 l 0.36,27.915 61.864,0.181 4.052,-2.342 0.091,-17.83 c 0,0 5.546,-0.123 10.154,-2.12 4.531,-1.965 8.125,-5.804 8.125,-5.804 l 0.091,4.052 43.043,0.09 -0.18,-68.438 -42.773,0.271 -0.09,27.375 c 0,0 -3.592,-3.764 -8.505,-5.88 -4.11,-1.77 -9.685,-1.955 -9.685,-1.955 l -0.18,-19 -0.811,-0.54 -62.405,-0.541 -3.151,3.782 -0.18,25.485 c 0,0 -4.517,-4.848 -9.756,-7.136 -5.069,-2.213 -10.866,-1.869 -10.866,-1.869 l 0.18,-19.721 -0.9,-0.811 -62.495,-0.18 -3.332,4.232 0.541,87.349 m 153.265,-41.693 -0.09,-6.484 c 0,0 3.151,0.27 3.241,3.242 0.09,2.972 -3.151,3.242 -3.151,3.242 M 166.78,65.275 c 0,0 3.782,-0.181 3.602,3.421 -0.18,3.602 -3.512,3.152 -3.512,3.152 l -0.09,-6.573"
         clip-rule="evenodd"
         id="path34"
         inkscape:connector-curvature="0" /></clipPath><clipPath
       clipPathUnits="userSpaceOnUse"
       id="clipPath40"><path
         d="m 21.26,122.636 0,-105.628 75.023,0 0,105.628 -75.023,0"
         id="path42"
         inkscape:connector-curvature="0" /></clipPath><clipPath
       clipPathUnits="userSpaceOnUse"
       id="clipPath168"><path
         d="m 85.748,400.394 -49.607,0 0,-49.474 49.607,0 0,49.474 z"
         id="path170"
         inkscape:connector-curvature="0" /></clipPath><clipPath
       clipPathUnits="userSpaceOnUse"
       id="clipPath244"><path
         d="m 85.748,400.394 -49.607,0 0,-49.474 49.607,0 0,49.474 z"
         id="path246"
         inkscape:connector-curvature="0" /></clipPath></defs><sodipodi:namedview
     pagecolor="#ffffff"
     bordercolor="#666666"
     borderopacity="1"
     objecttolerance="10"
     gridtolerance="10"
     guidetolerance="10"
     inkscape:pageopacity="0"
     inkscape:pageshadow="2"
     inkscape:window-width="1920"
     inkscape:window-height="1058"
     id="namedview4"
     showgrid="true"
     fit-margin-top="0"
     fit-margin-left="0"
     fit-margin-right="0"
     fit-margin-bottom="0"
     inkscape:zoom="1.4142136"
     inkscape:cx="199.65748"
     inkscape:cy="254.60597"
     inkscape:window-x="0"
     inkscape:window-y="0"
     inkscape:window-maximized="1"
     inkscape:current-layer="g10"><inkscape:grid
       type="xygrid"
       id="grid4146"
       empspacing="5"
       visible="true"
       enabled="true"
       snapvisiblegridlinesonly="true"
       spacingx="0.01px"
       spacingy="0.01px" /></sodipodi:namedview><g
     id="g10"
     inkscape:groupmode="layer"
     inkscape:label="nintendo_zima2011_2012_lite.indd2"
     transform="matrix(1.25,0,0,-1.25,-45.177904,390.78386)"><g
       id="g12"
       transform="matrix(8.9375681,0,0,8.9375681,-286.88205,-3265.9214)"><g
         id="g14"
         clip-path="url(#clipPath16)"><g
           id="g20"><g
             id="g22"
             clip-path="url(#clipPath24)"><g
               id="g28"><g
                 id="g30"
                 clip-path="url(#clipPath32)"><g
                   id="g36"><g
                     id="g38"
                     clip-path="url(#clipPath40)" /></g></g></g></g></g></g></g><g
       id="g44"
       transform="matrix(5.51273,0,0,5.51273,152.40941,36.8178)"
       style="fill:#bb0202;fill-opacity:1"
       inkscape:export-filename="/home/riccardo/projects/parlamento2013/mariox.png"
       inkscape:export-xdpi="300"
       inkscape:export-ydpi="300"><path
         d="m 0,0 0,1.004 1.003,0 0,1.003 1.004,0 0,1.004 -1.004,0 0,1.003 -2.006,0 0,1.003 2.006,0 0,1.004 -3.01,0 0,1.003 -5.017,0 0,-1.003 -1.004,0 0,-1.004 0.001,0 0,-1.003 -1.004,0 0,-3.01 2.007,0 0,-1.004 -1.003,0 0,-1.004 -1.004,0 0,-1.002 -1.004,0 0,-4.014 2.008,0 0,-1.004 -1.004,0 0,-1.003 -1.004,0 0,-1.003 4.014,0 0,2.006 1.004,0 0,1.004 2.006,0 0,-1.004 1.004,0 0,-2.006 4.014,0 0,1.003 -1.004,0 0,1.003 -1.003,0 0,1.004 2.007,0 0,4.014 -1.004,0 0,1.002 -3.01,0 0,1.004 L 0,0"
         style="fill:#bb0202;fill-opacity:1;fill-rule:nonzero;stroke:none"
         id="path46"
         inkscape:connector-curvature="0" /></g><path
       d="m 108.1532,47.88185 5.52927,0 0,11.06405 -5.52927,0 0,-11.06405 z"
       style="fill:#fbb26a;fill-opacity:1;fill-rule:nonzero;stroke:none"
       id="path48"
       inkscape:connector-curvature="0"
       inkscape:export-filename="/home/riccardo/projects/parlamento2013/mariox.png"
       inkscape:export-xdpi="300"
       inkscape:export-ydpi="300" /><g
       id="g50"
       transform="matrix(5.51273,0,0,5.51273,135.81057,42.34707)"
       inkscape:export-filename="/home/riccardo/projects/parlamento2013/mariox.png"
       inkscape:export-xdpi="300"
       inkscape:export-ydpi="300"><path
         d="m 0,0 0,1.004 1.004,0 0,1.004 -1.004,0 0,2.005 -2.007,0 0,-1.003 -1.003,0 0,-1.002 1.003,0 0,-1.004 -2.007,0 0,-2.008 7.025,0 L 3.011,0 0,0"
         style="fill:#fbb26a;fill-opacity:1;fill-rule:nonzero;stroke:none"
         id="path52"
         inkscape:connector-curvature="0" /></g><path
       d="m 135.81057,14.6897 5.53478,0 0,5.52927 -5.53478,0 0,-5.52927 z"
       style="fill:#fbb26a;fill-opacity:1;fill-rule:nonzero;stroke:none"
       id="path54"
       inkscape:connector-curvature="0"
       inkscape:export-filename="/home/riccardo/projects/parlamento2013/mariox.png"
       inkscape:export-xdpi="300"
       inkscape:export-ydpi="300" /><path
       d="m 119.21725,14.6897 5.53478,0 0,5.52927 -5.53478,0 0,-5.52927 z"
       style="fill:#fbb26a;fill-opacity:1;fill-rule:nonzero;stroke:none"
       id="path56"
       inkscape:connector-curvature="0"
       inkscape:export-filename="/home/riccardo/projects/parlamento2013/mariox.png"
       inkscape:export-xdpi="300"
       inkscape:export-ydpi="300" /><g
       id="g58"
       transform="matrix(5.51273,0,0,5.51273,108.15321,20.22448)"
       inkscape:export-filename="/home/riccardo/projects/parlamento2013/mariox.png"
       inkscape:export-xdpi="300"
       inkscape:export-ydpi="300"><path
         d="m 0,0 -2.007,0 0,-3.01 2.007,0 0,1.003 1.003,0 0,1.004 L 0,-1.003 0,0"
         style="fill:#fbb26a;fill-opacity:1;fill-rule:nonzero;stroke:none"
         id="path60"
         inkscape:connector-curvature="0" /></g><g
       id="g62"
       transform="matrix(5.51273,0,0,5.51273,152.40941,20.22448)"
       inkscape:export-filename="/home/riccardo/projects/parlamento2013/mariox.png"
       inkscape:export-xdpi="300"
       inkscape:export-ydpi="300"><path
         d="m 0,0 0,-1.003 -1.003,0 0,-1.004 1.003,0 0,-1.003 2.007,0 0,3.01 L 0,0"
         style="fill:#fbb26a;fill-opacity:1;fill-rule:nonzero;stroke:none"
         id="path64"
         inkscape:connector-curvature="0" /></g><g
       id="g66"
       transform="matrix(5.51273,0,0,5.51273,157.93863,53.41663)"
       inkscape:export-filename="/home/riccardo/projects/parlamento2013/mariox.png"
       inkscape:export-xdpi="300"
       inkscape:export-ydpi="300"><path
         d="m 0,0 0,1.003 -2.006,0 0,1.003 -1.004,0 0,-2.006 1.004,0 0,-1.004 3.01,0 L 1.004,0 0,0"
         style="fill:#fbb26a;fill-opacity:1;fill-rule:nonzero;stroke:none"
         id="path68"
         inkscape:connector-curvature="0" /></g><path
       d="m 135.81057,53.41663 5.53478,0 0,11.05853 -5.53478,0 0,-11.05853 z"
       style="fill:#867333;fill-opacity:1;fill-rule:nonzero;stroke:none"
       id="path70"
       inkscape:connector-curvature="0"
       inkscape:export-filename="/home/riccardo/projects/parlamento2013/mariox.png"
       inkscape:export-xdpi="300"
       inkscape:export-ydpi="300" /><g
       id="g72"
       transform="matrix(5.51273,0,0,5.51273,108.15321,58.94038)"
       inkscape:export-filename="/home/riccardo/projects/parlamento2013/mariox.png"
       inkscape:export-xdpi="300"
       inkscape:export-ydpi="300"><path
         d="m 0,0 -1.003,0 0,-3.01 2.006,0 0,1.003 L 0,-2.007 0,0"
         style="fill:#867333;fill-opacity:1;fill-rule:nonzero;stroke:none"
         id="path74"
         inkscape:connector-curvature="0" /></g><g
       id="g76"
       transform="matrix(5.51273,0,0,5.51273,124.75205,53.41663)"
       inkscape:export-filename="/home/riccardo/projects/parlamento2013/mariox.png"
       inkscape:export-xdpi="300"
       inkscape:export-ydpi="300"><path
         d="m 0,0 -1.004,0 0,1.003 1.004,0 0,1.003 -3.01,0 0,-1.003 1.003,0 0,-2.007 2.007,0 L 0,0"
         style="fill:#867333;fill-opacity:1;fill-rule:nonzero;stroke:none"
         id="path78"
         inkscape:connector-curvature="0" /></g><g
       id="g80"
       transform="matrix(5.51273,0,0,5.51273,157.93863,42.34707)"
       inkscape:export-filename="/home/riccardo/projects/parlamento2013/mariox.png"
       inkscape:export-xdpi="300"
       inkscape:export-ydpi="300"><path
         d="m 0,0 0,1.004 -2.006,0 0,1.004 -1.004,0 0,-1.004 -1.004,0 L -4.014,0 0,0"
         style="fill:#867333;fill-opacity:1;fill-rule:nonzero;stroke:none"
         id="path82"
         inkscape:connector-curvature="0" /></g><g
       id="g84"
       transform="matrix(5.51273,0,0,5.51273,108.15321,36.8178)"
       inkscape:export-filename="/home/riccardo/projects/parlamento2013/mariox.png"
       inkscape:export-xdpi="300"
       inkscape:export-ydpi="300"><path
         d="m 0,0 0,-1.004 -1.003,0 0,-1.002 -1.004,0 0,-1.004 2.007,0 0,-1.003 1.003,0 0,1.003 1.004,0 0,3.01 L 0,0"
         style="fill:#867333;fill-opacity:1;fill-rule:nonzero;stroke:none"
         id="path86"
         inkscape:connector-curvature="0" /></g><g
       id="g88"
       transform="matrix(5.51273,0,0,5.51273,124.75205,36.8178)"
       inkscape:export-filename="/home/riccardo/projects/parlamento2013/mariox.png"
       inkscape:export-xdpi="300"
       inkscape:export-ydpi="300"><path
         d="m 0,0 0,-2.006 2.007,0 0,1.002 1.003,0 L 3.01,0 0,0"
         style="fill:#867333;fill-opacity:1;fill-rule:nonzero;stroke:none"
         id="path90"
         inkscape:connector-curvature="0" /></g><g
       id="g92"
       transform="matrix(5.51273,0,0,5.51273,157.93863,25.7538)"
       inkscape:export-filename="/home/riccardo/projects/parlamento2013/mariox.png"
       inkscape:export-xdpi="300"
       inkscape:export-ydpi="300"><path
         d="m 0,0 0,1.003 -3.01,0 0,-2.007 1.004,0 0,-1.003 1.003,0 0,1.003 2.007,0 L 1.004,0 0,0"
         style="fill:#867333;fill-opacity:1;fill-rule:nonzero;stroke:none"
         id="path94"
         inkscape:connector-curvature="0" /></g><g
       id="g96"
       transform="matrix(5.51273,0,0,5.51273,157.93863,-1.9036704)"
       inkscape:export-filename="/home/riccardo/projects/parlamento2013/mariox.png"
       inkscape:export-xdpi="300"
       inkscape:export-ydpi="300"><path
         d="m 0,0 -3.01,0 0,-2.006 4.014,0 0,1.003 L 0,-1.003 0,0"
         style="fill:#867333;fill-opacity:1;fill-rule:nonzero;stroke:none"
         id="path98"
         inkscape:connector-curvature="0" /></g><g
       id="g100"
       transform="matrix(5.51273,0,0,5.51273,102.62391,-1.9036704)"
       inkscape:export-filename="/home/riccardo/projects/parlamento2013/mariox.png"
       inkscape:export-xdpi="300"
       inkscape:export-ydpi="300"><path
         d="m 0,0 0,-1.003 -1.004,0 0,-1.003 4.014,0 L 3.01,0 0,0"
         style="fill:#867333;fill-opacity:1;fill-rule:nonzero;stroke:none"
         id="path102"
         inkscape:connector-curvature="0" /></g><text
       xml:space="preserve"
       style="font-size:22.46102142px;font-style:normal;font-variant:normal;font-weight:normal;font-stretch:normal;line-height:125%;letter-spacing:0px;word-spacing:0px;fill:#bb0202;fill-opacity:1;stroke:none;font-family:Munro Small;-inkscape-font-specification:Munro Small"
       x="169.26233"
       y="-141.80984"
       id="text3370"
       sodipodi:linespacing="125%"
       transform="scale(1,-1)"
       inkscape:export-filename="/home/riccardo/projects/parlamento2013/mariox.png"
       inkscape:export-xdpi="300"
       inkscape:export-ydpi="300"><tspan
         sodipodi:role="line"
         id="tspan3372"
         x="169.26233"
         y="-141.80984">Click on the Bubbles</tspan><tspan
         sodipodi:role="line"
         x="169.26233"
         y="-113.73357"
         id="tspan3374">and discover the</tspan><tspan
         sodipodi:role="line"
         x="169.26233"
         y="-85.657295"
         id="tspan3376">Italian Camera composition!</tspan></text>
</g></svg>