<?xml version="1.0" encoding="UTF-8" standalone="no"?>
<!-- Created with Inkscape (http://www.inkscape.org/) -->

<svg
   xmlns:dc="http://purl.org/dc/elements/1.1/"
   xmlns:cc="http://creativecommons.org/ns#"
   xmlns:rdf="http://www.w3.org/1999/02/22-rdf-syntax-ns#"
   xmlns:svg="http://www.w3.org/2000/svg"
   xmlns="http://www.w3.org/2000/svg"
   xmlns:sodipodi="http://sodipodi.sourceforge.net/DTD/sodipodi-0.dtd"
   xmlns:inkscape="http://www.inkscape.org/namespaces/inkscape"
   width="744.09448819"
   height="1052.3622047"
   id="svg3586"
   version="1.1"
   inkscape:version="0.48.4 r9939"
   sodipodi:docname="New document 6">
  <defs
     id="defs3588" />
  <sodipodi:namedview
     id="base"
     pagecolor="#ffffff"
     bordercolor="#666666"
     borderopacity="1.0"
     inkscape:pageopacity="0.0"
     inkscape:pageshadow="2"
     inkscape:zoom="0.98994949"
     inkscape:cx="349.23265"
     inkscape:cy="534.64075"
     inkscape:document-units="px"
     inkscape:current-layer="layer1"
     showgrid="false"
     inkscape:window-width="949"
     inkscape:window-height="871"
     inkscape:window-x="0"
     inkscape:window-y="0"
     inkscape:window-maximized="0" />
  <metadata
     id="metadata3591">
    <rdf:RDF>
      <cc:Work
         rdf:about="">
        <dc:format>image/svg+xml</dc:format>
        <dc:type
           rdf:resource="http://purl.org/dc/dcmitype/StillImage" />
        <dc:title></dc:title>
      </cc:Work>
    </rdf:RDF>
  </metadata>
  <g
     inkscape:label="Layer 1"
     inkscape:groupmode="layer"
     id="layer1">
    <g
       id="g44"
       transform="matrix(11.17196,0,0,-11.17196,336.27285,478.29951)">
      <path
         d="m 0,0 0,1.004 1.003,0 0,1.003 1.004,0 0,1.004 -1.004,0 0,1.003 -2.006,0 0,1.003 2.006,0 0,1.004 -3.01,0 0,1.003 -5.017,0 0,-1.003 -1.004,0 0,-1.004 0.001,0 0,-1.003 -1.004,0 0,-3.01 2.007,0 0,-1.004 -1.003,0 0,-1.004 -1.004,0 0,-1.002 -1.004,0 0,-4.014 2.008,0 0,-1.004 -1.004,0 0,-1.003 -1.004,0 0,-1.003 4.014,0 0,2.006 1.004,0 0,1.004 2.006,0 0,-1.004 1.004,0 0,-2.006 4.014,0 0,1.003 -1.004,0 0,1.003 -1.003,0 0,1.004 2.007,0 0,4.014 -1.004,0 0,1.002 -3.01,0 0,1.004 L 0,0"
         style="fill:#ee3224;fill-opacity:1;fill-rule:nonzero;stroke:none"
         id="path46"
         inkscape:connector-curvature="0" />
    </g>
    <path
       d="m 246.58433,455.87738 11.20548,0 0,-22.42212 -11.20548,0 0,22.42212 z"
       style="fill:#fbb26a;fill-opacity:1;fill-rule:nonzero;stroke:none"
       id="path48"
       inkscape:connector-curvature="0" />
    <g
       id="g50"
       transform="matrix(11.17196,0,0,-11.17196,302.63405,467.09403)">
      <path
         d="m 0,0 0,1.004 1.004,0 0,1.004 -1.004,0 0,2.005 -2.007,0 0,-1.003 -1.003,0 0,-1.002 1.003,0 0,-1.004 -2.007,0 0,-2.008 7.025,0 L 3.011,0 0,0"
         style="fill:#fbb26a;fill-opacity:1;fill-rule:nonzero;stroke:none"
         id="path52"
         inkscape:connector-curvature="0" />
    </g>
    <path
       d="m 302.63405,523.14376 11.21665,0 0,-11.20548 -11.21665,0 0,11.20548 z"
       style="fill:#fbb26a;fill-opacity:1;fill-rule:nonzero;stroke:none"
       id="path54"
       inkscape:connector-curvature="0" />
    <path
       d="m 269.00645,523.14376 11.21665,0 0,-11.20548 -11.21665,0 0,11.20548 z"
       style="fill:#fbb26a;fill-opacity:1;fill-rule:nonzero;stroke:none"
       id="path56"
       inkscape:connector-curvature="0" />
    <g
       id="g58"
       transform="matrix(11.17196,0,0,-11.17196,246.58435,511.92711)">
      <path
         d="m 0,0 -2.007,0 0,-3.01 2.007,0 0,1.003 1.003,0 0,1.004 L 0,-1.003 0,0"
         style="fill:#fbb26a;fill-opacity:1;fill-rule:nonzero;stroke:none"
         id="path60"
         inkscape:connector-curvature="0" />
    </g>
    <g
       id="g62"
       transform="matrix(11.17196,0,0,-11.17196,336.27285,511.92711)">
      <path
         d="m 0,0 0,-1.003 -1.003,0 0,-1.004 1.003,0 0,-1.003 2.007,0 0,3.01 L 0,0"
         style="fill:#fbb26a;fill-opacity:1;fill-rule:nonzero;stroke:none"
         id="path64"
         inkscape:connector-curvature="0" />
    </g>
    <g
       id="g66"
       transform="matrix(11.17196,0,0,-11.17196,347.47822,444.66073)">
      <path
         d="m 0,0 0,1.003 -2.006,0 0,1.003 -1.004,0 0,-2.006 1.004,0 0,-1.004 3.01,0 L 1.004,0 0,0"
         style="fill:#fbb26a;fill-opacity:1;fill-rule:nonzero;stroke:none"
         id="path68"
         inkscape:connector-curvature="0" />
    </g>
    <path
       d="m 302.63405,444.66073 11.21665,0 0,-22.41093 -11.21665,0 0,22.41093 z"
       style="fill:#867333;fill-opacity:1;fill-rule:nonzero;stroke:none"
       id="path70"
       inkscape:connector-curvature="0" />
    <g
       id="g72"
       transform="matrix(11.17196,0,0,-11.17196,246.58435,433.46643)">
      <path
         d="m 0,0 -1.003,0 0,-3.01 2.006,0 0,1.003 L 0,-2.007 0,0"
         style="fill:#867333;fill-opacity:1;fill-rule:nonzero;stroke:none"
         id="path74"
         inkscape:connector-curvature="0" />
    </g>
    <g
       id="g76"
       transform="matrix(11.17196,0,0,-11.17196,280.22314,444.66073)">
      <path
         d="m 0,0 -1.004,0 0,1.003 1.004,0 0,1.003 -3.01,0 0,-1.003 1.003,0 0,-2.007 2.007,0 L 0,0"
         style="fill:#867333;fill-opacity:1;fill-rule:nonzero;stroke:none"
         id="path78"
         inkscape:connector-curvature="0" />
    </g>
    <g
       id="g80"
       transform="matrix(11.17196,0,0,-11.17196,347.47822,467.09403)">
      <path
         d="m 0,0 0,1.004 -2.006,0 0,1.004 -1.004,0 0,-1.004 -1.004,0 L -4.014,0 0,0"
         style="fill:#867333;fill-opacity:1;fill-rule:nonzero;stroke:none"
         id="path82"
         inkscape:connector-curvature="0" />
    </g>
    <g
       id="g84"
       transform="matrix(11.17196,0,0,-11.17196,246.58435,478.29951)">
      <path
         d="m 0,0 0,-1.004 -1.003,0 0,-1.002 -1.004,0 0,-1.004 2.007,0 0,-1.003 1.003,0 0,1.003 1.004,0 0,3.01 L 0,0"
         style="fill:#867333;fill-opacity:1;fill-rule:nonzero;stroke:none"
         id="path86"
         inkscape:connector-curvature="0" />
    </g>
    <g
       id="g88"
       transform="matrix(11.17196,0,0,-11.17196,280.22314,478.29951)">
      <path
         d="m 0,0 0,-2.006 2.007,0 0,1.002 1.003,0 L 3.01,0 0,0"
         style="fill:#867333;fill-opacity:1;fill-rule:nonzero;stroke:none"
         id="path90"
         inkscape:connector-curvature="0" />
    </g>
    <g
       id="g92"
       transform="matrix(11.17196,0,0,-11.17196,347.47822,500.72152)">
      <path
         d="m 0,0 0,1.003 -3.01,0 0,-2.007 1.004,0 0,-1.003 1.003,0 0,1.003 2.007,0 L 1.004,0 0,0"
         style="fill:#867333;fill-opacity:1;fill-rule:nonzero;stroke:none"
         id="path94"
         inkscape:connector-curvature="0" />
    </g>
    <g
       id="g96"
       transform="matrix(11.17196,0,0,-11.17196,347.47822,556.77147)">
      <path
         d="m 0,0 -3.01,0 0,-2.006 4.014,0 0,1.003 L 0,-1.003 0,0"
         style="fill:#867333;fill-opacity:1;fill-rule:nonzero;stroke:none"
         id="path98"
         inkscape:connector-curvature="0" />
    </g>
    <g
       id="g100"
       transform="matrix(11.17196,0,0,-11.17196,235.37881,556.77147)">
      <path
         d="m 0,0 0,-1.003 -1.004,0 0,-1.003 4.014,0 L 3.01,0 0,0"
         style="fill:#867333;fill-opacity:1;fill-rule:nonzero;stroke:none"
         id="path102"
         inkscape:connector-curvature="0" />
    </g>
  </g>
</svg>
