<svg id="chart" width="1605" height="836" viewBox="0 0 960 500" preserveAspectRatio="xMidYMid">
  <g transform="translate(480,250)" style="fill: rgb(106, 106, 106);">
    <circle id="p1" r="2" cx="0" cy="0" opacity="1"/>
    <path d="M0,100.5A100.5,100.5 0 1,1 0,-100.5A100.5,100.5 0 1,1 0,100.5M0,99.5A99.5,99.5 0 1,0 0,-99.5A99.5,99.5 0 1,0 0,99.5Z"/>
    <line id="l1" x1="0" y1="-130" x2="0" y2="140" opacity="1" stroke="#6a6a6a" stroke-width="1px"/>
    <circle id="p2" r="2" cx="0" cy="-100" opacity="1"/>
    <path transform="translate(0,-100)" d="M-77.43658089896684,64.0611109697433A100.5,100.5 0 0,1 -90.93511877283498,42.79081880228975L-90.03029172036896,42.36503951072467A99.5,99.5 0 0,0 -76.66606765619105,63.423686979994606Z"/>
    <circle id="p3" r="2" cx="0" cy="100" opacity="1"/>
    <path transform="translate(0,100)" d="M-93.44253683176925,-36.99651754481017A100.5,100.5 0 0,1 -81.30620793468223,-59.07241785539354L-80.49719094030728,-58.48463260310107A99.5,99.5 0 0,0 -92.51276034588099,-36.62839299212549Z"/>
    <line id="l2" x1="0" y1="-100" x2="-207.84609690826525" y2="20" stroke="#6a6a6a" stroke-width="1px"/>
    <line id="l3" x1="0" y1="100" x2="-207.84609690826525" y2="-20" stroke="#6a6a6a" stroke-width="1px"/>
    <line id="l4" x1="-190.5255888325765" y1="0" x2="130" y2="0" stroke="#6a6a6a" stroke-width="1px"/>
    <circle id="p4" r="2" cx="0" cy="-100" opacity="1"/>
    <path transform="translate(0,-100)" d="M100.30168620704129,-6.310447212696002A100.5,100.5 0 0,1 100.30168620704129,6.310447212696002L99.30365947861301,6.247656693166689A99.5,99.5 0 0,0 99.30365947861301,-6.247656693166689Z"/>
    <circle id="p5" r="2" cx="100" cy="0" opacity="1"/>
    <path transform="translate(100,0)" d="M-6.310447212695997,-100.30168620704129A100.5,100.5 0 0,1 6.310447212696009,-100.30168620704129L6.247656693166696,-99.30365947861301A99.5,99.5 0 0,0 -6.247656693166683,-99.30365947861301Z"/>
    <line id="l5" x1="-70" y1="-100" x2="430" y2="-100" stroke="#6a6a6a" stroke-width="1px"/>
    <circle id="p6" r="2" cx="100" cy="-100" opacity="1"/>
    <path transform="translate(100,-100)" d="M100.30168620704129,-6.310447212696002A100.5,100.5 0 0,1 100.30168620704129,6.310447212696002L99.30365947861301,6.247656693166689A99.5,99.5 0 0,0 99.30365947861301,-6.247656693166689Z"/>
    <circle id="p7" r="2" cx="200" cy="-100" opacity="1"/>
    <path transform="translate(200,-100)" d="M100.30168620704129,-6.310447212696002A100.5,100.5 0 0,1 100.30168620704129,6.310447212696002L99.30365947861301,6.247656693166689A99.5,99.5 0 0,0 99.30365947861301,-6.247656693166689Z"/>
    <circle id="p8" r="2" cx="300" cy="-100" opacity="1"/>
    <path transform="translate(300,-100)" d="M100.30168620704129,-6.310447212696002A100.5,100.5 0 0,1 100.30168620704129,6.310447212696002L99.30365947861301,6.247656693166689A99.5,99.5 0 0,0 99.30365947861301,-6.247656693166689Z"/>
    <circle id="p9" r="2" cx="0" cy="100" opacity="1"/>
    <path transform="translate(0,100)" d="M-100.30168620704129,6.31044721269597A100.5,100.5 0 0,1 -100.30168620704129,-6.310447212695947L-99.30365947861301,-6.2476566931666335A99.5,99.5 0 0,0 -99.30365947861301,6.2476566931666575Z"/>
    <circle id="p10" r="2" cx="-100" cy="0" opacity="1"/>
    <path transform="translate(-100,0)" d="M6.310447212696009,100.30168620704129A100.5,100.5 0 0,1 -6.310447212695997,100.30168620704129L-6.247656693166683,99.30365947861301A99.5,99.5 0 0,0 6.247656693166696,99.30365947861301Z"/>
    <line id="l6" x1="0" y1="100" x2="-130" y2="100" stroke="#6a6a6a" stroke-width="1px"/>
    <line id="l7" x1="400" y1="-100" x2="-125" y2="110" stroke="#6a6a6a" stroke-width="1px"/>
    <line id="l8" x1="0" y1="-100" x2="-56.416137" y2="82.56645" stroke="#6a6a6a" stroke-width="1px"/>
    <line id="l9" x1="0" y1="-100" x2="97.795447" y2="20.881821000000002" stroke="#6a6a6a" stroke-width="1px"/>
    <circle id="p11" r="2" cx="80.901699" cy="0" opacity="1"/>
    <path transform="translate(80.901699,0)" d="M-31.056207934682206,-95.58117988766294A100.5,100.5 0 0,1 31.05620793468222,-95.58117988766293L30.74719094030727,-94.63012337136777A99.5,99.5 0 0,0 -30.74719094030726,-94.63012337136779Z"/>
    <line id="l10" x1="80.901699" y1="-100" x2="80.901699" y2="90" stroke="#6a6a6a" stroke-width="1px"/>
    <circle id="p12" r="2" cx="-30.845059" cy="0" opacity="1"/>
    <path transform="translate(-30.845059,0)" d="M-31.056207934682206,-95.58117988766294A100.5,100.5 0 0,1 31.05620793468222,-95.58117988766293L30.74719094030727,-94.63012337136777A99.5,99.5 0 0,0 -30.74719094030726,-94.63012337136779Z"/>
    <line id="l11" x1="-30.845059" y1="-100" x2="-30.845059" y2="110" stroke="#6a6a6a" stroke-width="1px"/>
    <line id="l12" x1="-100" y1="0" x2="-30.845" y2="95.124" opacity="1" stroke="red" stroke-width="3px"/>
    <line id="l13" x1="-30.845" y1="95.124" x2="80.902" y2="58.779" opacity="1" stroke="red" stroke-width="3px"/>
    <line id="l14" x1="80.902" y1="58.779" x2="80.902" y2="-58.779" opacity="1" stroke="red" stroke-width="3px"/>
    <line id="l15" x1="80.902" y1="-58.779" x2="-30.845" y2="-95.124" opacity="1" stroke="red" stroke-width="3px"/>
    <line id="l16" x1="-30.845" y1="-95.124" x2="-100" y2="0" opacity="1" stroke="red" stroke-width="3px"/>
  </g>
</svg>