<?xml version="1.0" ?><!DOCTYPE svg  PUBLIC '-//W3C//DTD SVG 1.1//EN'  'http://www.w3.org/Graphics/SVG/1.1/DTD/svg11.dtd'><svg enable_background="new 0 0 650 720" height="720px" pretty_print="False" style="stroke-linejoin: round; stroke:#000; fill: none;" version="1.1" viewBox="0 0 650 720" width="650px" xmlns="http://www.w3.org/2000/svg" xmlns:xlink="http://www.w3.org/1999/xlink"><defs><style type="text/css"><![CDATA[path { fill-rule: evenodd; }]]></style></defs><metadata><views><view h="720.170480909" padding="0" w="650"><proj id="laea" lat0="41.25" lon0="13.0"/><bbox h="156.62" w="141.55" x="929.22" y="920.48"/></view></views></metadata><g class="default" id="mondo"><path d="M650.0,360.3L649.3,359.9L647.1,357.5L643.0,349.6L642.6,346.1L642.6,342.9L640.1,335.8L641.1,333.8L642.7,332.5L642.4,329.5L641.6,325.1L642.8,316.1L643.3,315.4L643.7,312.9L643.0,307.5L640.0,298.8L638.2,296.0L634.7,293.4L632.1,291.7L627.4,290.3L624.7,285.6L620.8,280.3L619.1,279.2L618.3,279.1L614.1,281.9L610.9,283.3L608.0,284.1L606.5,283.1L605.7,281.5L605.4,276.9L604.7,275.4L603.7,274.7L601.7,276.0L599.6,279.7L597.8,284.0L594.8,288.6L592.4,292.9L589.8,298.4L588.1,302.9L590.4,305.2L591.9,308.5L591.7,311.1L592.2,312.5L591.9,317.0L592.0,319.8L597.3,320.2L602.2,323.7L602.7,332.0L601.7,334.6L599.8,336.7L598.0,344.6L598.9,350.4L600.4,355.1L600.0,362.6L600.9,372.3L598.2,380.6L596.7,387.9L597.2,390.3L601.9,398.5L603.0,402.1L602.3,403.9L600.3,403.0L598.7,402.3L597.1,402.5L599.0,405.7L600.9,409.1L604.9,413.1L621.5,421.3L627.1,430.6L628.7,434.5L629.4,439.6L630.3,439.5L632.0,440.0L635.2,441.9L638.6,442.1L640.3,440.5L641.2,439.2L641.7,437.0L641.7,434.5L642.2,433.6L644.7,433.7L645.5,433.0L645.3,430.8L643.4,428.2L641.7,424.9L641.6,423.3L642.7,422.5L644.5,420.9L645.4,419.0L647.4,417.9L650.0,417.5L650.0,360.3Z "/><path d="M294.4,0.0L294.6,2.7L293.9,4.2L275.9,6.0L270.5,7.9L266.4,10.3L263.5,11.3L262.7,12.8L259.7,14.7L256.4,15.3L255.7,14.6L253.5,15.5L249.9,16.3L247.6,16.0L246.5,14.3L244.3,11.8L243.5,10.1L243.6,9.0L238.6,8.6L235.4,7.2L228.7,7.3L227.1,6.7L226.7,7.3L225.5,14.3L224.0,17.1L221.8,20.0L218.9,21.6L216.7,21.8L216.9,19.7L217.6,17.1L216.0,16.4L213.6,16.0L212.5,15.2L212.9,13.2L212.3,12.0L211.4,10.6L209.1,8.7L204.1,5.9L200.7,4.5L199.4,5.8L196.9,7.1L193.0,6.5L192.0,7.0L193.1,7.8L195.8,10.4L194.9,14.6L191.5,21.3L191.8,22.3L192.0,23.4L192.3,24.7L192.4,26.2L193.0,27.8L194.0,29.3L194.3,30.7L193.7,32.5L193.0,33.5L194.6,33.5L199.3,34.9L203.1,36.7L203.8,38.5L204.2,40.7L208.7,43.8L214.0,45.9L215.8,45.3L222.6,38.6L225.1,39.9L226.5,43.6L226.3,45.5L227.4,46.1L231.2,46.3L235.5,46.8L238.1,49.9L240.8,51.0L244.6,51.4L247.1,51.1L248.4,50.0L250.0,46.5L252.8,42.2L257.1,40.1L264.4,39.8L268.1,39.0L271.9,39.1L274.7,39.9L277.7,39.8L285.2,36.9L293.0,34.6L294.0,35.0L294.2,35.8L292.8,37.6L291.4,40.1L292.3,42.9L296.6,48.5L299.0,52.9L301.2,56.1L304.8,57.8L309.4,58.9L313.3,59.3L317.4,60.5L331.6,63.5L338.7,64.3L344.1,64.5L352.3,66.4L354.0,66.7L357.4,66.9L361.2,67.6L364.8,68.4L367.9,69.5L374.5,70.6L380.4,71.3L382.2,71.9L383.7,71.8L385.5,72.8L386.6,72.0L387.3,70.7L390.6,69.1L393.5,67.0L395.5,64.4L396.7,62.3L398.7,60.8L400.9,60.4L402.8,59.6L411.2,58.4L419.9,59.0L424.0,57.4L427.3,54.8L432.2,54.0L432.5,53.9L439.9,55.6L440.5,54.5L440.8,54.0L440.4,48.6L442.7,46.0L444.8,44.9L450.7,38.6L453.7,36.7L457.3,36.9L458.4,36.3L458.7,35.4L459.2,33.4L459.4,31.5L459.6,29.7L459.2,28.7L457.5,28.4L456.5,24.1L457.3,22.4L458.1,21.2L456.8,15.9L457.0,14.1L459.8,13.7L462.0,12.5L463.8,11.1L464.2,9.4L465.6,6.0L464.0,2.0L457.3,0.0L326.3,0.0L327.1,2.4L326.8,6.7L326.2,10.7L325.5,12.4L323.8,12.5L320.4,10.8L317.7,8.7L316.7,7.5L316.6,6.0L317.2,5.1L316.3,3.2L313.0,1.5L309.5,2.3L306.9,3.4L305.3,3.3L303.5,1.7L300.7,0.4L299.0,0.0L294.4,0.0Z "/><path d="M481.1,133.2L476.2,138.0L465.8,137.3L462.8,140.5L459.5,146.5L456.8,149.4L454.3,148.5L451.2,146.0L445.8,139.6L443.2,138.5L440.2,138.3L437.6,139.1L436.3,140.5L435.5,150.3L434.9,158.8L435.0,164.0L440.9,168.5L448.0,176.4L450.2,177.3L451.4,179.9L453.3,186.7L455.4,194.4L459.1,199.4L462.4,203.0L466.3,206.0L471.4,210.9L475.6,216.3L476.7,218.3L484.7,225.3L492.6,232.4L499.4,234.7L500.5,236.0L500.9,241.8L501.7,243.9L506.5,249.7L516.2,258.1L517.4,260.1L517.7,261.5L517.2,262.7L514.9,264.1L518.4,266.2L521.3,265.0L523.9,265.6L525.8,268.7L529.1,270.7L534.5,274.1L538.0,276.8L545.8,281.5L547.6,282.1L551.4,283.4L552.1,283.1L553.2,282.2L555.3,279.7L555.7,278.5L555.4,276.6L551.9,271.0L551.2,267.3L550.3,260.3L550.8,258.6L551.9,257.7L557.5,256.5L557.0,251.0L557.2,249.3L558.2,247.0L558.8,244.8L561.7,241.7L565.6,237.8L567.4,237.6L569.0,238.0L571.1,240.9L573.0,240.4L573.2,236.7L570.2,232.1L568.6,229.1L569.0,227.4L569.9,226.4L572.1,226.8L574.3,227.5L575.6,226.8L577.7,226.2L578.9,226.3L581.1,223.2L583.0,222.7L585.4,222.4L587.1,223.7L589.3,223.9L590.3,221.9L590.7,219.2L590.2,215.8L584.5,208.2L579.7,202.9L579.1,201.8L580.0,200.6L581.5,200.0L583.1,200.3L587.4,200.4L591.4,199.6L592.7,198.1L592.5,196.3L590.9,194.7L585.8,190.5L581.8,186.7L577.3,184.0L574.0,183.0L572.9,181.5L572.4,179.8L572.5,176.7L572.4,172.8L573.0,170.3L575.5,165.4L577.9,160.3L579.3,155.4L579.8,151.0L579.4,149.7L577.9,148.9L574.8,148.2L570.6,149.3L567.2,151.2L565.8,151.4L563.2,151.8L558.9,151.1L556.9,149.4L556.4,147.6L556.2,145.9L554.7,143.2L551.2,140.6L544.2,140.6L541.6,139.8L538.9,138.9L535.9,138.3L533.3,138.6L530.1,139.5L524.4,138.6L522.6,140.4L519.8,142.5L517.3,142.6L512.1,138.4L510.7,138.2L506.5,140.7L504.8,140.9L503.4,140.3L497.5,138.8L494.9,138.6L493.0,139.5L489.6,138.8L481.1,133.2Z "/><path d="M117.9,0.0L114.6,1.6L113.4,3.7L111.4,6.6L108.4,7.6L105.4,7.8L103.0,7.3L101.7,6.0L101.9,4.9L100.7,3.9L97.5,3.7L94.1,5.5L91.3,8.6L91.9,10.6L94.3,11.2L94.9,12.0L94.8,13.0L93.9,14.1L92.7,16.0L87.2,21.5L81.6,27.0L80.7,28.7L79.0,29.8L72.2,32.5L71.4,33.7L70.6,39.0L69.6,43.2L64.4,46.9L59.2,50.6L57.8,53.0L56.7,55.8L54.9,58.9L54.4,60.6L56.6,63.6L56.2,65.9L55.1,69.1L52.6,71.3L49.9,72.4L49.6,75.9L51.0,76.6L54.1,76.6L58.7,74.3L61.9,71.2L60.4,67.9L60.3,67.3L60.8,66.6L64.4,63.4L68.8,61.6L74.6,61.7L81.5,63.4L82.2,64.0L81.7,66.1L82.1,69.3L83.2,71.5L81.0,77.6L82.1,79.7L84.0,82.1L85.4,84.4L87.4,86.5L89.2,89.9L89.7,91.8L91.0,93.2L93.8,94.7L101.7,93.4L106.7,91.9L110.2,90.2L112.3,90.7L119.8,94.0L122.4,92.7L128.2,89.2L129.2,87.2L133.9,81.3L134.1,79.8L132.5,75.9L133.1,75.0L138.7,71.4L141.5,68.0L144.4,65.8L146.4,65.9L147.0,66.7L147.1,68.4L146.5,75.1L147.2,77.2L151.1,82.3L154.0,85.3L160.8,87.5L161.1,88.4L159.0,92.0L163.0,96.6L163.5,99.8L165.4,101.7L168.2,101.0L169.2,99.3L168.2,96.3L167.6,93.2L167.9,91.4L168.7,89.3L170.8,86.6L176.3,80.2L178.3,76.5L178.9,70.6L179.2,65.8L180.9,64.8L184.6,65.8L185.7,65.7L186.1,68.6L187.5,73.3L189.2,75.8L191.2,76.5L193.5,76.6L199.4,74.0L203.3,72.9L205.4,73.3L206.6,75.3L209.1,80.4L210.6,81.1L212.5,80.5L213.2,79.7L212.7,77.7L212.0,73.5L211.1,70.2L209.7,68.6L209.5,66.6L210.5,63.0L211.6,60.0L213.6,59.3L215.9,59.0L218.8,62.3L222.3,63.4L224.9,63.3L225.4,61.5L225.3,59.4L223.9,56.8L224.3,52.8L226.3,45.5L226.5,43.6L225.1,39.9L222.6,38.6L215.8,45.3L214.0,45.9L208.7,43.8L204.2,40.7L203.8,38.5L203.1,36.7L199.3,34.9L194.6,33.5L193.0,33.5L190.0,33.0L189.5,33.0L189.2,31.0L189.6,26.8L191.5,21.3L194.9,14.6L195.8,10.4L193.1,7.8L192.0,7.0L185.6,2.5L182.0,0.0L153.1,0.0L152.3,0.1L151.4,1.0L150.4,1.2L149.8,1.3L146.6,0.1L144.2,0.0L141.3,0.0L137.5,1.4L131.1,1.7L122.4,0.8L120.8,0.0L117.9,0.0Z "/><path d="M299.0,0.0L300.7,0.4L303.5,1.7L305.3,3.3L306.9,3.4L309.5,2.3L313.0,1.5L316.3,3.2L317.2,5.1L316.6,6.0L316.7,7.5L317.7,8.7L320.4,10.8L323.8,12.5L325.5,12.4L326.2,10.7L326.8,6.7L327.1,2.4L326.3,0.0L299.0,0.0Z M182.0,0.0L185.6,2.5L192.0,7.0L193.0,6.5L196.9,7.1L199.4,5.8L200.7,4.5L204.1,5.9L209.1,8.7L211.4,10.6L212.3,12.0L212.9,13.2L212.5,15.2L213.6,16.0L216.0,16.4L217.6,17.1L216.9,19.7L216.7,21.8L218.9,21.6L221.8,20.0L224.0,17.1L225.5,14.3L226.7,7.3L227.1,6.7L228.7,7.3L235.4,7.2L238.6,8.6L243.6,9.0L243.5,10.1L244.3,11.8L246.5,14.3L247.6,16.0L249.9,16.3L253.5,15.5L255.7,14.6L256.4,15.3L259.7,14.7L262.7,12.8L263.5,11.3L266.4,10.3L270.5,7.9L275.9,6.0L293.9,4.2L294.6,2.7L294.4,0.0L182.0,0.0Z M144.2,0.0L146.6,0.1L149.8,1.3L150.4,1.2L151.4,1.0L152.3,0.1L153.1,0.0L144.2,0.0Z M120.8,0.0L122.4,0.8L131.1,1.7L137.5,1.4L141.3,0.0L120.8,0.0Z "/><path d="M105.0,718.2L105.8,713.6L107.7,707.7L111.9,701.2L110.5,695.7L108.8,689.7L109.9,679.6L109.6,675.5L108.1,671.8L106.7,667.0L106.9,663.2L109.0,653.1L110.6,645.3L113.0,635.3L112.5,632.4L111.1,630.2L107.0,627.8L107.0,626.4L108.1,625.0L114.7,620.4L118.4,613.3L121.3,612.0L125.7,609.6L125.7,606.7L124.9,603.7L104.5,604.1L94.5,606.6L89.2,605.0L81.3,597.7L73.6,593.9L63.4,591.3L64.6,598.4L60.2,599.6L50.3,600.3L34.8,594.4L31.1,589.5L23.8,591.2L19.8,597.0L11.2,600.5L0.0,602.3L0.0,718.2L105.0,718.2Z "/><path d="M178.9,273.6L179.0,270.5L178.4,265.7L178.6,263.7L176.7,261.3L174.6,261.5L173.0,265.6L172.4,272.9L172.9,275.6L171.8,278.6L170.6,279.6L169.3,278.5L167.0,277.5L164.5,277.1L162.4,278.6L160.4,281.0L158.3,281.8L150.8,283.6L146.4,286.7L143.0,293.5L140.7,295.7L139.7,297.2L140.7,298.0L142.1,298.1L144.0,301.6L141.1,302.9L139.3,305.1L140.0,308.4L142.1,310.9L144.6,312.3L144.5,315.3L142.3,317.9L140.6,319.8L140.8,321.5L142.9,322.0L145.7,322.0L146.4,325.2L144.5,328.8L144.3,331.2L146.5,332.7L151.3,335.0L150.9,336.8L148.7,339.0L147.6,341.2L149.0,343.0L151.1,345.5L155.6,347.9L163.1,353.5L166.2,349.3L169.9,340.0L171.8,337.2L172.8,334.3L173.5,323.2L174.8,320.7L180.3,312.0L180.6,310.2L180.2,288.0L179.6,286.1L178.2,284.4L177.5,281.9L178.9,273.6Z M0.0,230.2L1.3,231.0L4.5,231.1L9.4,232.0L12.4,238.9L23.0,242.7L28.3,247.7L37.4,248.3L40.8,250.1L48.9,247.0L56.8,245.9L60.0,244.4L63.9,241.2L65.4,237.2L66.8,235.0L73.1,231.8L87.0,220.3L90.4,218.4L95.3,216.7L95.4,215.5L96.1,214.8L96.9,214.6L97.8,215.2L97.8,215.8L100.1,215.0L100.2,211.8L100.0,209.4L101.8,206.9L104.8,204.0L107.5,200.3L108.7,197.6L108.4,195.7L107.4,192.9L105.9,192.6L96.5,194.3L94.4,193.6L87.8,189.5L80.8,184.6L78.3,181.2L77.5,178.0L78.4,176.0L77.9,174.0L76.7,171.2L78.2,168.3L80.8,164.6L82.1,162.1L84.1,161.6L85.1,160.1L84.0,153.8L83.3,152.7L82.1,151.8L80.0,151.6L76.6,150.0L74.3,147.7L73.9,144.8L72.8,141.9L70.8,139.1L70.7,136.3L73.4,135.0L76.9,135.2L79.3,135.9L85.2,131.8L87.2,131.5L89.1,130.7L91.1,124.6L92.4,122.9L92.8,121.8L91.8,120.5L87.6,115.8L86.0,111.1L83.1,105.8L80.3,103.4L79.9,101.6L80.0,99.4L80.7,97.5L86.3,94.8L89.7,91.8L89.2,89.9L87.4,86.5L85.4,84.4L84.0,82.1L82.1,79.7L81.0,77.6L83.2,71.5L82.1,69.3L81.7,66.1L82.2,64.0L81.5,63.4L74.6,61.7L68.8,61.6L64.4,63.4L60.8,66.6L60.3,67.3L60.4,67.9L61.9,71.2L58.7,74.3L54.1,76.6L51.0,76.6L49.6,75.9L49.9,72.4L52.6,71.3L55.1,69.1L56.2,65.9L56.6,63.6L54.4,60.6L54.9,58.9L56.7,55.8L57.8,53.0L59.2,50.6L64.4,46.9L69.6,43.2L70.6,39.0L71.4,33.7L72.2,32.5L79.0,29.8L80.7,28.7L81.6,27.0L87.2,21.5L92.7,16.0L93.9,14.1L94.8,13.0L94.9,12.0L94.3,11.2L91.9,10.6L91.3,8.6L94.1,5.5L97.5,3.7L100.7,3.9L101.9,4.9L101.7,6.0L103.0,7.3L105.4,7.8L108.4,7.6L111.4,6.6L113.4,3.7L114.6,1.6L117.9,0.0L0.0,0.0L0.0,230.2Z "/><path d="M634.0,455.0L631.7,454.6L628.5,453.3L627.1,451.4L625.6,446.2L625.6,445.1L622.9,442.5L623.4,441.1L626.4,437.8L625.9,436.3L624.3,435.1L621.9,434.0L616.3,435.6L613.8,437.6L614.1,439.9L621.6,447.3L625.4,454.1L629.6,456.6L635.2,458.1L634.0,455.0Z M650.0,417.5L647.4,417.9L645.4,419.0L644.5,420.9L642.7,422.5L641.6,423.3L641.7,424.9L643.4,428.2L645.3,430.8L645.5,433.0L644.7,433.7L642.2,433.6L641.7,434.5L641.7,437.0L641.2,439.2L640.3,440.5L638.6,442.1L635.2,441.9L632.0,440.0L630.3,439.5L629.4,439.6L634.0,443.2L638.4,448.2L644.2,460.2L650.0,462.8L650.0,417.5Z "/><path d="M516.3,273.6L508.9,272.2L507.2,272.4L505.3,272.9L522.2,277.1L516.3,273.6Z M476.1,262.6L476.8,264.7L478.1,266.1L479.9,267.2L484.6,268.0L489.8,265.9L494.4,266.4L498.5,266.1L497.7,265.3L494.5,263.6L489.3,262.9L483.8,263.9L476.1,262.6Z M499.5,259.9L495.7,260.1L492.3,260.8L501.3,263.0L515.2,269.8L525.2,271.5L539.7,279.9L547.2,285.5L555.3,290.3L553.4,287.7L551.6,285.5L551.4,283.4L547.6,282.1L545.8,281.5L538.0,276.8L534.5,274.1L529.1,270.7L525.8,268.7L523.9,265.6L521.3,265.0L518.4,266.2L520.9,268.7L499.5,259.9Z M498.2,254.3L492.6,253.5L477.5,252.4L475.7,250.3L470.2,249.7L464.2,250.8L465.5,251.7L471.5,254.5L476.9,255.4L495.3,255.0L498.2,254.3Z M480.9,246.9L484.5,245.2L485.2,244.2L482.7,242.2L473.1,240.9L466.8,240.9L466.1,243.4L465.9,244.9L468.8,246.5L474.4,247.3L480.9,246.9Z M421.6,209.2L417.4,207.2L419.1,210.0L421.8,212.5L424.4,213.3L421.6,209.2Z M415.7,204.3L408.9,199.1L409.3,200.2L411.3,202.7L416.4,206.3L415.7,204.3Z M414.2,212.3L404.3,201.5L400.7,198.7L401.8,201.1L412.1,213.2L412.7,212.9L414.8,213.7L414.8,213.1L414.2,212.3Z M413.6,188.9L414.6,188.2L415.7,188.0L410.4,183.3L406.0,177.9L401.5,173.6L399.8,173.3L397.6,171.6L395.1,168.9L395.9,170.7L401.0,177.4L402.2,180.7L405.7,183.5L407.5,185.8L409.9,187.7L412.6,190.4L413.6,188.9Z M398.6,165.3L395.8,161.8L395.4,160.5L392.9,160.4L392.2,161.7L391.7,163.1L392.5,164.8L395.9,165.6L399.7,167.8L398.6,165.3Z M384.9,171.2L384.7,169.3L384.0,167.5L383.3,159.4L383.8,153.6L380.8,150.2L379.7,147.5L379.2,142.6L378.1,142.7L376.4,143.9L378.6,150.9L378.8,153.2L377.2,155.4L377.6,157.7L380.8,165.7L382.2,170.6L384.7,173.4L384.9,171.2Z M397.5,153.0L394.5,148.1L393.0,146.7L390.1,141.8L387.7,139.2L385.9,143.6L382.5,146.4L383.0,147.5L385.5,149.9L389.5,150.4L390.2,152.2L392.6,154.3L397.5,153.0Z M471.3,69.1L464.2,65.6L462.1,64.8L458.6,63.6L454.4,63.2L453.6,63.9L452.0,64.8L451.2,66.1L452.1,71.5L451.1,72.4L446.4,72.1L444.8,72.8L442.4,76.6L439.8,78.2L436.5,79.5L434.1,80.9L431.0,82.2L428.3,83.0L427.3,84.6L426.7,86.4L427.0,88.2L429.8,91.5L430.3,95.2L430.1,99.7L429.6,102.1L428.6,103.7L421.9,106.0L415.0,109.8L414.9,110.7L418.1,113.9L418.3,114.7L415.7,116.6L415.5,118.5L415.9,120.6L417.3,122.8L417.9,124.8L414.1,126.3L408.8,125.9L402.6,123.3L400.4,123.8L398.3,125.2L396.2,124.7L393.8,123.0L390.4,119.5L388.7,117.4L388.0,115.0L387.1,114.7L385.7,115.4L384.6,118.3L381.6,123.4L379.4,124.8L375.9,124.6L371.1,124.7L368.1,125.2L364.4,123.4L363.5,123.8L363.5,125.0L362.2,126.8L359.9,128.1L349.4,125.4L347.9,123.2L345.5,125.2L349.1,139.3L349.5,143.1L350.1,146.3L354.7,152.8L359.6,161.5L361.1,161.9L363.8,161.5L366.8,156.3L368.7,152.3L374.4,143.1L375.5,136.1L377.2,133.0L380.2,132.7L386.8,135.1L390.1,139.2L399.1,147.1L401.4,153.2L400.7,161.9L401.3,168.2L404.9,174.0L416.8,186.1L421.4,189.1L425.1,192.2L421.0,191.3L417.6,191.5L415.4,192.5L413.5,192.5L411.1,193.4L413.7,198.2L426.9,212.7L433.5,218.0L440.3,222.1L445.4,226.4L445.8,229.2L445.6,231.4L447.5,234.1L450.0,234.8L453.5,234.6L459.1,233.0L464.2,232.1L472.8,236.3L485.5,239.8L495.3,249.6L503.8,254.6L512.8,262.8L514.9,264.1L517.2,262.7L517.7,261.5L517.4,260.1L516.2,258.1L506.5,249.7L501.7,243.9L500.9,241.8L500.5,236.0L499.4,234.7L492.6,232.4L484.7,225.3L476.7,218.3L475.6,216.3L471.4,210.9L466.3,206.0L462.4,203.0L459.1,199.4L455.4,194.4L453.3,186.7L451.4,179.9L450.2,177.3L448.0,176.4L440.9,168.5L435.0,164.0L434.9,158.8L435.5,150.3L436.3,140.5L437.6,139.1L440.2,138.3L443.2,138.5L445.8,139.6L451.2,146.0L454.3,148.5L456.8,149.4L459.5,146.5L462.8,140.5L465.8,137.3L476.2,138.0L481.1,133.2L489.6,138.8L493.0,139.5L494.9,138.6L497.5,138.8L503.4,140.3L504.8,140.9L506.5,140.7L510.7,138.2L512.1,138.4L517.3,142.6L519.8,142.5L522.6,140.4L524.4,138.6L530.1,139.5L533.3,138.6L535.9,138.3L538.9,138.9L541.6,139.8L544.2,140.6L551.2,140.6L554.7,143.2L556.2,145.9L556.4,147.6L556.9,149.4L558.9,151.1L563.2,151.8L565.8,151.4L565.2,149.5L565.7,148.5L566.8,148.6L567.7,148.9L568.7,147.9L569.1,145.2L566.9,136.1L569.5,135.1L569.4,133.7L569.6,132.6L572.5,134.0L576.3,133.7L579.7,133.1L580.1,132.2L580.0,130.9L579.2,129.9L577.9,129.2L577.0,127.9L574.6,127.5L567.3,124.7L563.5,121.5L563.3,117.7L564.2,115.6L565.4,114.8L565.0,114.1L560.8,112.7L559.2,110.3L560.2,107.1L557.6,101.0L555.2,97.3L557.2,95.5L557.3,93.1L557.4,91.7L557.2,91.7L554.6,93.1L550.3,94.0L548.1,93.7L544.5,99.3L543.3,100.3L539.6,102.2L536.6,103.2L533.8,102.7L532.8,102.7L521.0,103.2L514.7,102.4L510.6,100.5L507.9,98.4L506.4,95.9L503.3,94.5L498.4,94.2L494.5,91.8L491.6,87.4L487.8,84.0L483.1,81.6L479.2,78.0L476.3,73.3L471.3,69.1Z "/><path d="M457.3,0.0L464.0,2.0L465.6,6.0L464.2,9.4L463.8,11.1L462.0,12.5L459.8,13.7L457.0,14.1L456.8,15.9L458.1,21.2L457.3,22.4L456.5,24.1L457.5,28.4L459.2,28.7L459.6,29.7L459.4,31.5L459.2,33.4L458.7,35.4L458.4,36.3L457.3,36.9L453.7,36.7L450.7,38.6L444.8,44.9L452.2,45.0L453.2,46.6L453.7,49.2L454.5,52.6L455.8,53.5L456.5,54.8L456.5,57.2L458.0,58.9L461.6,63.6L462.1,64.8L464.2,65.6L471.3,69.1L476.3,73.3L479.2,78.0L483.1,81.6L487.8,84.0L491.6,87.4L494.5,91.8L498.4,94.2L503.3,94.5L506.4,95.9L507.9,98.4L510.6,100.5L514.7,102.4L521.0,103.2L532.8,102.7L533.8,102.7L536.6,103.2L539.6,102.2L543.3,100.3L544.5,99.3L548.1,93.7L550.3,94.0L554.6,93.1L557.2,91.7L557.4,91.7L558.3,91.6L561.6,89.8L562.8,88.4L563.4,86.9L564.2,86.4L566.6,87.9L569.0,87.9L571.7,86.6L573.6,85.0L576.0,83.6L577.0,82.7L578.4,81.3L580.9,77.3L584.1,76.2L588.5,76.9L593.2,76.8L596.6,75.7L605.6,76.0L607.6,76.8L608.9,77.6L610.3,76.1L619.0,73.4L623.3,75.0L625.1,74.1L626.8,72.4L627.6,71.1L627.7,69.8L628.4,68.1L631.3,67.1L639.3,67.3L642.3,64.7L643.4,63.4L643.8,60.6L644.4,58.3L647.1,56.9L646.9,54.9L646.2,52.7L647.3,47.7L648.1,45.6L649.6,44.8L650.0,44.4L650.0,0.0L457.3,0.0Z "/><path d="M282.0,618.6L281.8,617.5L280.8,615.0L277.3,613.7L276.8,614.5L276.9,617.2L279.8,619.2L282.0,618.6Z M439.6,534.4L442.1,531.7L439.1,530.1L436.0,530.5L429.1,534.9L426.4,534.2L423.9,535.4L421.8,537.8L419.3,538.8L413.2,538.1L407.1,538.0L404.6,538.3L402.3,539.3L397.9,543.1L392.1,545.4L388.1,545.6L382.4,547.2L371.8,546.0L366.8,547.0L360.2,549.5L357.8,549.3L355.4,548.4L346.9,542.7L344.3,542.3L342.1,541.3L340.6,538.3L338.0,537.7L332.1,537.8L327.5,541.1L327.2,543.8L323.0,546.2L320.7,546.6L318.3,544.9L313.2,538.2L311.7,540.5L310.0,542.4L307.3,543.7L304.8,545.5L302.1,551.9L299.8,558.7L300.6,561.3L303.8,567.2L308.9,571.5L311.5,572.7L314.1,573.0L319.2,572.6L321.6,572.8L326.8,576.5L332.6,578.0L334.9,579.5L336.9,581.9L341.2,585.4L351.5,590.6L361.1,597.3L365.9,599.2L371.3,598.8L376.6,598.9L381.9,602.1L386.9,606.2L393.1,615.9L395.6,617.1L398.2,617.6L405.6,620.7L410.8,619.8L415.9,621.4L420.9,621.6L421.0,618.9L420.4,616.1L420.9,613.1L422.0,610.1L423.9,607.6L428.7,603.0L428.7,600.6L428.4,598.3L425.9,596.0L423.0,592.1L425.5,590.0L423.8,587.9L421.6,586.5L420.3,585.0L419.7,582.7L419.4,578.1L420.7,573.9L422.1,570.6L423.2,567.1L423.8,563.1L425.0,559.5L435.3,543.4L436.7,540.9L439.6,534.4Z M126.4,483.0L124.8,481.6L121.7,480.0L121.2,481.0L121.2,484.4L123.6,488.5L126.4,483.0Z M365.3,395.2L366.2,394.5L366.3,393.3L362.3,392.1L361.6,394.2L362.2,395.1L363.3,395.7L365.3,395.2Z M123.9,371.1L125.4,369.9L126.6,367.7L125.6,366.5L123.3,367.7L121.2,371.4L120.4,373.3L122.4,373.6L123.9,371.1Z M180.9,382.7L178.5,380.7L177.7,379.7L179.4,376.4L180.7,375.7L180.5,375.0L178.9,374.2L177.3,372.8L175.8,369.8L174.0,367.2L169.7,364.4L166.8,364.0L164.6,360.8L162.6,361.5L161.7,364.7L159.2,367.0L154.4,368.6L146.5,377.3L141.1,380.2L135.6,382.5L131.1,383.1L126.6,382.2L124.4,381.5L121.8,378.5L120.9,378.1L119.9,380.5L118.6,386.0L118.6,392.8L120.2,395.5L122.9,398.3L125.2,401.7L126.4,405.1L127.1,410.2L129.6,413.8L129.1,422.9L128.3,425.9L126.2,428.0L125.6,431.4L125.8,434.8L129.5,436.2L131.6,439.6L131.0,443.5L131.0,445.6L129.7,446.1L128.0,444.5L127.1,446.0L127.3,450.2L126.5,455.0L125.1,457.1L124.1,459.4L124.1,470.2L124.2,475.1L126.9,480.6L129.6,485.3L131.3,489.1L133.5,491.4L136.6,491.5L140.2,492.7L143.7,492.7L147.6,490.0L150.2,485.6L152.2,474.6L154.1,476.2L156.2,477.1L158.7,476.3L161.2,476.2L166.6,479.2L170.8,481.0L174.2,479.6L175.3,474.7L177.0,469.1L181.2,436.9L182.3,431.7L182.2,427.5L180.6,423.6L180.1,417.4L185.2,410.1L186.5,407.8L187.6,404.6L187.2,401.4L182.9,386.4L180.9,382.7Z M217.0,272.0L215.4,274.0L212.4,273.6L210.8,274.2L205.8,274.4L205.0,275.8L205.8,278.2L209.0,278.6L214.3,277.4L217.7,280.2L217.4,277.0L218.4,275.5L218.3,274.3L217.0,272.0Z M291.4,40.1L292.8,37.6L294.2,35.8L294.0,35.0L293.0,34.6L285.2,36.9L277.7,39.8L274.7,39.9L271.9,39.1L268.1,39.0L264.4,39.8L257.1,40.1L252.8,42.2L250.0,46.5L248.4,50.0L247.1,51.1L244.6,51.4L240.8,51.0L238.1,49.9L235.5,46.8L231.2,46.3L227.4,46.1L226.3,45.5L224.3,52.8L223.9,56.8L225.3,59.4L225.4,61.5L224.9,63.3L222.3,63.4L218.8,62.3L215.9,59.0L213.6,59.3L211.6,60.0L210.5,63.0L209.5,66.6L209.7,68.6L211.1,70.2L212.0,73.5L212.7,77.7L213.2,79.7L212.5,80.5L210.6,81.1L209.1,80.4L206.6,75.3L205.4,73.3L203.3,72.9L199.4,74.0L193.5,76.6L191.2,76.5L189.2,75.8L187.5,73.3L186.1,68.6L185.7,65.7L184.6,65.8L180.9,64.8L179.2,65.8L178.9,70.6L178.3,76.5L176.3,80.2L170.8,86.6L168.7,89.3L167.9,91.4L167.6,93.2L168.2,96.3L169.2,99.3L168.2,101.0L165.4,101.7L163.5,99.8L163.0,96.6L159.0,92.0L161.1,88.4L160.8,87.5L154.0,85.3L151.1,82.3L147.2,77.2L146.5,75.1L147.1,68.4L147.0,66.7L146.4,65.9L144.4,65.8L141.5,68.0L138.7,71.4L133.1,75.0L132.5,75.9L134.1,79.8L133.9,81.3L129.2,87.2L128.2,89.2L122.4,92.7L119.8,94.0L112.3,90.7L110.2,90.2L106.7,91.9L101.7,93.4L93.8,94.7L91.0,93.2L89.7,91.8L86.3,94.8L80.7,97.5L80.0,99.4L79.9,101.6L80.3,103.4L83.1,105.8L86.0,111.1L87.6,115.8L91.8,120.5L92.8,121.8L92.4,122.9L91.1,124.6L89.1,130.7L87.2,131.5L85.2,131.8L79.3,135.9L76.9,135.2L73.4,135.0L70.7,136.3L70.8,139.1L72.8,141.9L73.9,144.8L74.3,147.7L76.6,150.0L80.0,151.6L82.1,151.8L83.3,152.7L84.0,153.8L85.1,160.1L84.1,161.6L82.1,162.1L80.8,164.6L78.2,168.3L76.7,171.2L77.9,174.0L78.4,176.0L77.5,178.0L78.3,181.2L80.8,184.6L87.8,189.5L94.4,193.6L96.5,194.3L105.9,192.6L107.4,192.9L108.4,195.7L108.7,197.6L107.5,200.3L104.8,204.0L101.8,206.9L100.0,209.4L100.2,211.8L100.1,215.0L110.0,213.6L121.3,210.1L124.6,207.9L133.9,196.1L145.0,184.8L153.9,180.9L160.5,182.1L171.0,187.3L174.8,187.7L192.1,200.8L204.9,205.8L210.4,210.1L212.6,215.6L215.0,234.9L220.0,243.1L222.7,252.6L223.1,256.2L222.4,260.5L222.1,266.0L225.2,266.8L227.5,266.7L230.1,268.0L231.2,270.0L232.3,273.2L233.8,275.5L239.3,279.4L248.6,291.1L249.2,295.6L247.4,296.2L245.8,297.8L247.3,299.3L249.3,299.2L251.9,297.9L253.8,297.6L262.2,301.1L268.0,305.5L274.9,317.2L286.1,325.3L291.5,332.7L309.3,352.2L318.6,355.7L326.0,361.8L326.7,363.7L328.8,365.0L332.8,363.1L335.5,362.4L340.4,363.0L348.6,365.6L353.5,364.3L356.2,365.3L361.6,371.3L369.8,385.9L369.7,389.2L371.1,390.2L372.2,388.3L374.1,388.6L381.1,389.0L386.2,391.9L387.6,393.6L382.6,401.1L384.4,401.0L387.7,399.1L391.9,399.3L394.2,398.3L400.8,396.8L404.0,398.9L407.0,403.0L408.8,407.9L410.6,413.1L408.2,416.9L408.2,419.5L409.3,420.9L424.4,430.1L428.6,431.0L437.0,430.7L441.7,434.1L445.0,440.8L449.4,454.5L457.3,469.7L459.8,481.7L461.6,488.2L466.3,492.7L466.1,503.0L460.3,504.5L456.3,506.0L454.3,508.4L452.3,511.7L453.7,519.1L450.4,529.4L445.0,531.9L442.6,536.9L443.0,544.8L446.6,550.1L461.4,549.5L463.7,545.0L465.1,541.2L470.9,531.7L482.2,522.2L483.3,517.4L482.1,504.9L484.5,500.0L490.4,494.7L498.9,491.5L505.4,492.3L508.5,487.7L505.9,480.0L504.9,466.2L499.6,460.7L491.8,455.6L481.7,452.6L478.2,446.6L478.3,440.2L483.7,424.3L489.2,413.3L494.1,405.7L498.4,402.3L504.8,402.6L506.3,403.5L507.9,406.2L508.4,408.3L514.5,411.4L518.0,412.6L534.9,413.7L545.2,432.6L551.6,437.0L557.1,438.4L559.0,433.6L559.9,428.8L562.3,422.0L560.8,415.5L554.5,407.4L541.4,397.2L537.6,392.3L516.4,382.9L507.6,375.7L500.0,371.1L476.1,362.6L452.8,351.9L447.9,347.8L448.2,341.6L453.1,336.9L458.0,333.5L459.5,330.3L458.3,325.6L453.9,324.0L449.7,323.5L426.3,325.7L416.3,324.8L403.4,318.4L389.5,307.8L374.3,293.2L367.0,282.9L363.4,273.8L358.2,255.3L353.5,243.4L348.1,233.2L345.8,230.9L337.1,226.8L321.2,213.5L312.4,209.3L304.1,201.4L300.5,196.3L296.9,184.6L294.8,168.0L296.0,161.8L297.7,161.8L300.3,163.8L303.5,161.2L304.9,158.1L305.9,154.2L300.7,150.1L296.5,140.6L294.1,138.7L295.1,131.5L296.2,127.1L299.3,124.5L304.8,121.5L306.6,121.6L302.4,125.9L305.0,126.3L309.6,124.3L315.5,121.7L321.2,117.9L326.2,116.4L329.8,113.0L331.2,110.2L333.2,108.8L343.4,112.3L347.1,108.8L349.8,108.8L356.0,116.9L353.5,119.1L355.8,119.4L358.5,118.8L359.6,117.5L357.9,113.8L353.5,109.3L351.2,107.6L348.0,106.4L347.5,105.2L349.2,98.0L348.6,97.0L345.0,97.3L344.2,96.6L343.9,95.3L344.1,93.6L346.5,90.8L349.2,88.3L349.9,86.9L349.8,85.8L346.4,84.7L344.3,83.6L342.6,83.2L341.5,83.9L340.7,83.2L339.8,81.1L340.6,77.9L343.7,75.0L347.0,72.4L349.9,70.5L351.5,69.6L352.3,66.4L344.1,64.5L338.7,64.3L331.6,63.5L317.4,60.5L313.3,59.3L309.4,58.9L304.8,57.8L301.2,56.1L299.0,52.9L296.6,48.5L292.3,42.9L291.4,40.1Z M300.4,212.7L302.2,210.0L304.8,209.6L305.2,211.6L304.0,214.6L301.6,215.0L300.4,212.7Z "/><path d="M193.0,33.5L193.7,32.5L194.3,30.7L194.0,29.3L193.0,27.8L192.4,26.2L192.3,24.7L192.0,23.4L191.8,22.3L191.5,21.3L189.6,26.8L189.2,31.0L189.5,33.0L190.0,33.0L193.0,33.5Z "/><path d="M97.8,215.8L97.8,215.2L96.9,214.6L96.1,214.8L95.4,215.5L95.3,216.7L97.8,215.8Z "/><path d="M396.9,669.3L395.5,667.5L391.4,663.5L386.9,662.4L387.1,668.4L391.0,671.2L395.4,671.2L396.9,669.3Z M385.2,659.6L385.5,659.2L384.7,657.7L382.8,657.0L379.1,657.9L379.7,658.9L382.4,660.6L385.2,659.6Z "/><path d="M578.9,226.3L577.7,226.2L575.6,226.8L574.3,227.5L572.1,226.8L569.9,226.4L569.0,227.4L568.6,229.1L570.2,232.1L573.2,236.7L573.0,240.4L571.1,240.9L569.0,238.0L567.4,237.6L565.6,237.8L561.7,241.7L558.8,244.8L558.2,247.0L557.2,249.3L557.0,251.0L557.5,256.5L551.9,257.7L550.8,258.6L550.3,260.3L551.2,267.3L551.9,271.0L555.4,276.6L555.7,278.5L555.3,279.7L553.2,282.2L552.1,283.1L551.4,283.4L551.6,285.5L553.4,287.7L555.3,290.3L556.8,290.5L558.3,289.5L560.6,289.4L560.1,290.6L559.6,292.0L560.3,293.1L571.7,299.7L582.0,309.7L585.1,315.8L592.0,319.8L591.9,317.0L592.2,312.5L591.7,311.1L591.9,308.5L590.4,305.2L588.1,302.9L589.8,298.4L592.4,292.9L594.8,288.6L597.8,284.0L599.6,279.7L601.7,276.0L603.7,274.7L604.7,275.4L605.4,276.9L605.7,281.5L606.5,283.1L608.0,284.1L610.9,283.3L614.1,281.9L618.3,279.1L619.1,279.2L619.3,278.6L619.7,274.3L618.5,271.4L616.8,268.9L617.7,267.2L620.8,267.0L623.4,267.0L624.2,264.5L629.4,262.4L629.4,261.0L628.9,258.7L625.7,256.6L621.4,255.1L611.6,249.4L608.0,248.9L604.8,248.4L600.0,245.7L597.7,245.3L594.9,243.3L588.7,236.4L583.6,232.7L580.2,230.9L579.2,229.0L578.8,227.0L578.9,226.3Z "/><path d="M304.0,214.6L305.2,211.6L304.8,209.6L302.2,210.0L300.4,212.7L301.6,215.0L304.0,214.6Z "/><path d="M650.0,121.3L648.9,120.5L647.0,120.5L643.8,119.2L640.4,117.1L637.2,113.8L634.0,111.8L633.1,111.0L632.9,110.1L633.4,109.1L633.3,108.0L632.2,104.6L632.3,100.9L631.9,97.6L631.7,96.0L631.1,95.6L630.6,96.2L629.9,96.9L629.2,97.1L626.7,94.8L623.4,90.0L621.4,88.4L617.5,86.4L614.2,84.8L611.5,80.7L608.9,77.6L607.6,76.8L605.6,76.0L596.6,75.7L593.2,76.8L588.5,76.9L584.1,76.2L580.9,77.3L578.4,81.3L577.0,82.7L576.0,83.6L573.6,85.0L571.7,86.6L569.0,87.9L566.6,87.9L564.2,86.4L563.4,86.9L562.8,88.4L561.6,89.8L558.3,91.6L557.4,91.7L557.3,93.1L557.2,95.5L555.2,97.3L557.6,101.0L560.2,107.1L559.2,110.3L560.8,112.7L565.0,114.1L565.4,114.8L564.2,115.6L563.3,117.7L563.5,121.5L567.3,124.7L574.6,127.5L577.0,127.9L577.9,129.2L579.2,129.9L580.0,130.9L580.1,132.2L579.7,133.1L576.3,133.7L572.5,134.0L569.6,132.6L569.4,133.7L569.5,135.1L566.9,136.1L569.1,145.2L568.7,147.9L567.7,148.9L566.8,148.6L565.7,148.5L565.2,149.5L565.8,151.4L567.2,151.2L570.6,149.3L574.8,148.2L577.9,148.9L579.4,149.7L579.8,151.0L579.3,155.4L577.9,160.3L575.5,165.4L573.0,170.3L572.4,172.8L572.5,176.7L572.4,179.8L572.9,181.5L574.0,183.0L577.3,184.0L581.8,186.7L585.8,190.5L590.9,194.7L592.5,196.3L592.7,198.1L591.4,199.6L587.4,200.4L583.1,200.3L581.5,200.0L580.0,200.6L579.1,201.8L579.7,202.9L584.5,208.2L590.2,215.8L590.7,219.2L590.3,221.9L589.3,223.9L587.1,223.7L585.4,222.4L583.0,222.7L581.1,223.2L578.9,226.3L578.8,227.0L579.2,229.0L580.2,230.9L583.6,232.7L588.7,236.4L594.9,243.3L597.7,245.3L600.0,245.7L604.8,248.4L608.0,248.9L611.6,249.4L621.4,255.1L625.7,256.6L628.9,258.7L629.4,261.0L629.4,262.4L634.4,260.2L635.0,259.0L633.6,256.5L634.1,254.8L639.9,249.7L640.7,247.6L640.9,245.9L639.9,244.3L638.5,241.6L639.0,240.5L642.0,238.6L644.4,236.6L645.9,236.3L647.0,237.5L647.1,238.8L648.2,241.1L650.0,242.0L650.0,121.3Z "/><path d="M462.1,64.8L461.6,63.6L458.0,58.9L456.5,57.2L456.5,54.8L455.8,53.5L454.5,52.6L453.7,49.2L453.2,46.6L452.2,45.0L444.8,44.9L442.7,46.0L440.4,48.6L440.8,54.0L440.5,54.5L439.9,55.6L432.5,53.9L432.2,54.0L427.3,54.8L424.0,57.4L419.9,59.0L411.2,58.4L402.8,59.6L400.9,60.4L398.7,60.8L396.7,62.3L395.5,64.4L393.5,67.0L390.6,69.1L387.3,70.7L386.6,72.0L385.5,72.8L383.7,71.8L382.2,71.9L380.4,71.3L374.5,70.6L367.9,69.5L364.8,68.4L361.2,67.6L357.4,66.9L354.0,66.7L352.3,66.4L351.5,69.6L349.9,70.5L347.0,72.4L343.7,75.0L340.6,77.9L339.8,81.1L340.7,83.2L341.5,83.9L342.6,83.2L344.3,83.6L346.4,84.7L349.8,85.8L349.9,86.9L349.2,88.3L346.5,90.8L344.1,93.6L343.9,95.3L344.2,96.6L345.0,97.3L348.6,97.0L349.2,98.0L347.5,105.2L348.0,106.4L351.2,107.6L353.5,109.3L357.9,113.8L359.6,117.5L358.5,118.8L355.8,119.4L353.5,119.1L350.3,122.1L347.9,123.2L349.4,125.4L359.9,128.1L362.2,126.8L363.5,125.0L363.5,123.8L364.4,123.4L368.1,125.2L371.1,124.7L375.9,124.6L379.4,124.8L381.6,123.4L384.6,118.3L385.7,115.4L387.1,114.7L388.0,115.0L388.7,117.4L390.4,119.5L393.8,123.0L396.2,124.7L398.3,125.2L400.4,123.8L402.6,123.3L408.8,125.9L414.1,126.3L417.9,124.8L417.3,122.8L415.9,120.6L415.5,118.5L415.7,116.6L418.3,114.7L418.1,113.9L414.9,110.7L415.0,109.8L421.9,106.0L428.6,103.7L429.6,102.1L430.1,99.7L430.3,95.2L429.8,91.5L427.0,88.2L426.7,86.4L427.3,84.6L428.3,83.0L431.0,82.2L434.1,80.9L436.5,79.5L439.8,78.2L442.4,76.6L444.8,72.8L446.4,72.1L451.1,72.4L452.1,71.5L451.2,66.1L452.0,64.8L453.6,63.9L454.4,63.2L458.6,63.6L462.1,64.8Z "/><path d="M228.6,718.2L230.2,715.2L238.0,703.7L234.6,698.2L234.2,691.5L232.8,686.0L233.1,681.3L223.1,673.3L218.8,671.6L214.4,666.5L210.8,658.2L209.6,650.1L210.3,645.6L212.1,641.8L217.6,636.5L224.8,632.5L232.8,618.6L236.9,613.1L240.1,611.3L238.0,606.0L237.1,600.0L232.4,600.7L223.9,607.8L215.0,610.4L212.5,615.3L207.6,618.6L202.2,615.6L204.2,610.9L197.9,601.2L198.6,591.5L193.7,588.7L189.3,588.2L184.2,588.3L184.3,590.6L185.0,592.4L181.9,594.9L180.0,590.5L181.5,588.1L182.7,585.1L179.1,583.8L175.9,583.1L151.0,590.3L147.2,592.3L136.2,600.8L124.9,603.7L125.7,606.7L125.7,609.6L121.3,612.0L118.4,613.3L114.7,620.4L108.1,625.0L107.0,626.4L107.0,627.8L111.1,630.2L112.5,632.4L113.0,635.3L110.6,645.3L109.0,653.1L106.9,663.2L106.7,667.0L108.1,671.8L109.6,675.5L109.9,679.6L108.8,689.7L110.5,695.7L111.9,701.2L107.7,707.7L105.8,713.6L105.0,718.2L228.6,718.2Z "/><path d="M301.4,327.9L301.3,327.4L301.0,327.5L300.9,327.7L301.0,327.9L301.4,327.9Z "/></g><g class="default" id="regioni"><path d="M122.8,94.5L122.5,101.0L124.3,106.7L122.7,112.8L117.0,114.3L105.8,112.9L102.1,115.8L91.1,117.9L91.1,117.9L92.8,120.5L91.4,128.9L84.6,132.1L81.5,135.8L75.3,135.5L70.6,137.0L72.2,141.9L75.1,143.5L78.1,151.4L84.3,152.9L84.7,161.5L83.2,161.6L80.3,168.0L77.3,170.0L78.7,179.9L83.1,187.5L92.3,192.8L106.6,193.6L110.2,198.7L110.2,198.9L113.0,194.6L122.1,197.3L126.1,192.1L125.0,186.2L132.2,174.8L138.0,177.5L142.0,174.8L146.0,175.7L147.7,172.3L151.0,172.1L155.0,177.0L160.6,173.0L161.3,166.8L172.1,171.0L172.1,170.9L172.0,170.8L172.1,168.8L172.2,166.8L172.2,166.8L172.2,166.6L164.7,153.8L160.6,145.6L150.7,145.4L146.4,132.0L152.5,131.5L155.6,129.4L155.4,126.9L159.8,125.8L155.4,119.4L153.2,107.5L149.7,104.1L151.3,100.8L150.5,97.3L156.8,86.1L156.3,85.9L146.9,76.3L146.3,74.3L147.6,65.0L144.0,65.5L132.5,75.5L135.2,79.7L130.5,84.5L128.0,90.3L124.9,90.0L122.9,94.4L122.8,94.5Z M157.7,147.1L157.6,147.3L157.4,147.3L157.7,147.1Z M153.2,147.1L153.3,146.7L153.3,147.3L153.2,147.1Z "/><path d="M91.1,117.9L102.1,115.8L105.8,112.9L117.0,114.3L122.7,112.8L124.3,106.7L122.5,101.0L122.8,94.5L122.7,94.3L120.2,94.2L111.7,89.8L101.6,93.5L100.5,92.7L92.6,95.8L90.6,92.0L88.7,94.6L81.6,96.2L81.2,103.7L87.8,108.0L86.6,110.7L91.1,117.8L91.1,117.9Z "/><path d="M156.8,86.1L150.5,97.3L151.3,100.8L149.7,104.1L153.2,107.5L155.4,119.4L159.8,125.8L155.4,126.9L155.6,129.4L152.5,131.5L146.4,132.0L150.7,145.4L160.6,145.6L164.7,153.8L172.2,166.6L172.2,166.8L172.2,166.8L174.6,167.2L177.4,156.1L175.8,155.1L180.7,145.9L187.2,142.1L193.6,146.6L198.0,147.1L205.2,143.3L208.6,148.9L213.5,148.7L227.0,156.1L232.6,152.2L234.8,154.2L251.2,155.2L257.2,153.9L262.0,154.5L262.0,154.7L262.0,154.1L255.5,149.8L251.0,144.5L236.8,133.4L234.7,133.3L234.4,128.2L230.8,126.1L231.2,119.0L239.7,104.5L239.8,104.2L239.8,104.2L227.7,106.5L225.4,93.4L228.8,87.8L230.5,80.5L229.5,78.4L232.4,71.5L225.8,64.4L225.4,64.1L217.7,61.4L217.7,58.2L212.2,59.7L209.9,63.4L209.6,68.7L214.2,70.6L212.2,76.2L214.4,79.6L207.6,77.8L207.6,73.9L199.1,74.5L195.5,76.7L190.1,76.0L186.9,66.7L181.2,64.2L179.8,74.9L174.4,83.0L169.5,88.9L168.3,96.2L170.2,97.3L165.2,99.5L159.6,92.2L160.4,86.1L157.0,85.9L156.8,86.1Z M175.8,166.1L175.9,165.8L176.0,165.8L175.8,166.1Z M176.1,166.6L176.2,166.5L176.4,166.4L176.1,166.6Z M166.7,94.3L166.7,93.3L166.4,93.0L166.7,94.3Z M157.6,147.3L157.7,147.1L157.4,147.3L157.6,147.3Z M153.3,146.7L153.2,147.1L153.3,147.3L153.3,146.7Z "/><path d="M225.8,64.4L232.4,71.5L229.5,78.4L230.5,80.5L228.8,87.8L225.4,93.4L227.7,106.5L239.8,104.2L239.8,104.2L239.9,104.3L239.8,110.6L248.2,110.9L251.3,112.1L253.0,109.9L255.5,101.9L265.4,95.3L272.6,97.5L273.3,90.5L278.5,89.6L282.4,87.4L278.2,76.7L282.9,65.5L286.0,65.5L289.4,57.9L291.6,59.7L299.4,60.1L304.7,57.4L304.7,57.4L300.1,52.0L297.3,51.5L297.1,46.0L295.3,46.0L291.1,38.8L295.7,35.4L293.6,34.0L280.5,39.0L272.3,38.8L257.9,39.8L250.4,46.5L250.7,48.5L242.3,51.5L234.5,45.2L230.8,46.9L227.1,46.0L224.3,58.4L226.0,58.3L225.8,64.3L225.8,64.4Z "/><path d="M304.7,57.4L299.4,60.1L291.6,59.7L289.4,57.9L286.0,65.5L282.9,65.5L278.2,76.7L282.4,87.4L278.5,89.6L273.3,90.5L272.6,97.5L265.4,95.3L255.5,101.9L253.0,109.9L251.3,112.1L248.2,110.9L239.8,110.6L239.9,104.3L239.8,104.2L239.7,104.5L231.2,119.0L230.8,126.1L234.4,128.2L234.7,133.3L236.8,133.4L251.0,144.5L255.5,149.8L262.0,154.1L262.0,154.7L262.0,154.7L270.2,158.0L276.9,153.5L283.6,152.9L294.0,156.6L295.2,155.5L300.7,164.0L301.0,163.3L304.7,152.8L298.2,145.4L297.1,137.7L299.6,129.9L301.8,128.2L315.2,122.0L321.9,117.7L329.0,116.0L329.0,116.0L323.7,105.0L316.4,104.1L309.5,105.0L302.4,98.8L301.4,93.4L304.8,90.0L305.2,87.1L299.2,82.2L301.9,77.1L315.2,65.2L314.6,60.0L314.5,59.9L307.3,58.4L306.7,57.7L304.8,57.5L304.7,57.4Z "/><path d="M329.0,116.0L323.7,105.0L316.4,104.1L309.5,105.0L302.4,98.8L301.4,93.4L304.8,90.0L305.2,87.1L299.2,82.2L301.9,77.1L315.2,65.2L314.6,60.0L315.1,59.7L328.3,61.8L338.0,64.2L349.5,65.2L353.0,66.7L351.9,70.9L342.2,75.5L340.5,80.8L341.1,83.8L346.7,84.0L350.4,87.8L344.6,92.6L345.7,97.4L349.8,96.5L347.6,104.4L357.7,111.9L358.4,119.3L353.5,118.0L355.1,115.7L349.8,108.8L346.3,107.0L346.2,110.6L341.3,114.1L334.3,112.0L329.1,115.7L329.0,116.0Z M355.2,115.2L355.1,114.8L355.0,114.8L355.2,115.2Z M355.7,117.6L355.7,117.6L355.7,117.6L355.7,117.6L355.7,117.6L355.7,117.6L355.7,117.6Z M354.8,115.5L354.8,115.5L354.8,115.6L354.8,115.6L354.8,115.6L354.8,115.5Z M356.2,117.7L356.2,117.7L356.2,117.7L356.2,117.7Z M353.2,112.3L353.2,112.3L353.2,112.3L353.2,112.3Z M353.0,111.9L353.0,111.9L353.0,111.9L353.0,111.9Z M352.3,111.2L352.3,111.2L352.3,111.2L352.3,111.2Z M356.2,117.7L356.2,117.7L356.2,117.7L356.2,117.7Z M353.2,112.5L353.2,112.5L353.2,112.5L353.2,112.5L353.2,112.5Z M352.4,111.3L352.4,111.3L352.4,111.3L352.4,111.3Z M355.7,117.6L355.7,117.6L355.7,117.6L355.7,117.6Z M355.7,117.6L355.7,117.6L355.7,117.6L355.7,117.6Z M355.7,117.6L355.7,117.6L355.7,117.6L355.7,117.6Z "/><path d="M203.8,204.4L202.9,200.0L197.6,195.6L197.6,191.5L191.2,185.7L191.0,185.7L190.5,185.7L189.1,182.9L183.3,182.1L183.8,175.6L172.1,170.8L172.1,170.9L172.1,171.0L161.3,166.8L160.6,173.0L155.0,177.0L151.0,172.1L147.7,172.3L146.0,175.7L142.0,174.8L138.0,177.5L132.2,174.8L125.0,186.2L126.1,192.1L122.1,197.3L113.0,194.6L110.2,198.9L110.2,198.9L101.0,210.8L101.4,213.1L110.2,214.0L124.4,208.8L128.5,206.0L133.0,195.9L148.7,182.7L153.0,180.6L161.6,183.0L170.4,188.1L172.5,185.9L179.3,191.5L194.8,202.9L203.8,204.4L203.8,204.4Z M196.8,204.7L197.1,203.7L196.4,203.9L196.8,204.7Z M197.0,205.2L196.9,205.0L196.8,205.2L197.0,205.2Z M159.7,182.5L158.4,182.1L159.1,182.4L159.7,182.5Z M140.4,190.9L140.4,190.8L140.4,190.8L140.4,190.9Z M196.9,205.3L196.9,205.2L196.9,205.3L196.9,205.3Z M196.1,201.1L196.3,201.2L196.2,201.2L196.1,201.1Z M111.3,213.3L111.3,213.3L111.3,213.3L111.3,213.3Z M112.3,212.8L112.3,212.8L112.3,212.8L112.3,212.8Z M156.7,181.1L156.7,181.0L156.7,181.0L156.7,181.1Z M112.5,212.8L112.5,212.8L112.5,212.8L112.5,212.8Z M197.6,201.3L197.6,201.3L197.6,201.3L197.6,201.3Z M112.5,212.8L112.5,212.8L112.5,212.8L112.5,212.8Z M156.5,181.0L156.5,181.0L156.5,181.0L156.5,181.0Z M160.7,182.7L160.7,182.7L160.7,182.7L160.7,182.7Z M141.3,187.6L141.3,187.6L141.3,187.6L141.3,187.6Z M196.6,203.3L196.6,203.3L196.6,203.3L196.6,203.3Z M156.5,181.0L156.5,181.0L156.5,181.0L156.5,181.0Z M156.7,181.1L156.7,181.1L156.7,181.1L156.7,181.1Z M188.8,198.2L188.8,198.2L188.8,198.2L188.8,198.2Z "/><path d="M300.7,164.0L295.2,155.5L294.0,156.6L283.6,152.9L276.9,153.5L270.2,158.0L262.0,154.7L262.0,154.7L262.0,154.5L257.2,153.9L251.2,155.2L234.8,154.2L232.6,152.2L227.0,156.1L213.5,148.7L208.6,148.9L205.2,143.3L198.0,147.1L193.6,146.6L187.2,142.1L180.7,145.9L175.8,155.1L177.4,156.1L174.6,167.2L172.2,166.8L172.2,166.8L172.2,166.8L172.1,168.8L172.0,170.8L172.1,170.9L172.1,170.8L183.8,175.6L183.3,182.1L189.1,182.9L190.5,185.7L191.0,185.7L191.0,185.6L199.8,180.0L203.7,181.6L206.8,186.8L213.7,191.9L218.5,192.1L227.5,201.1L229.3,198.6L234.3,199.6L239.7,203.8L250.3,201.8L252.2,199.7L262.1,195.8L265.0,199.7L266.9,199.1L272.5,204.8L269.9,209.2L277.7,219.5L286.9,223.4L295.7,222.2L295.8,222.2L295.7,222.1L297.9,218.9L298.4,216.4L301.3,214.6L300.9,214.4L300.8,212.0L303.4,210.2L304.4,213.7L304.4,213.7L311.1,218.7L314.2,212.9L314.9,210.7L314.8,210.8L312.5,209.8L301.8,198.7L297.8,188.9L296.3,182.3L296.3,161.3L300.7,164.0L300.7,164.0Z M293.4,219.6L291.7,221.5L291.8,219.9L293.4,219.6Z M222.8,196.8L222.8,196.7L222.8,196.7L222.8,196.8Z M296.0,178.3L296.0,178.3L296.0,178.3L296.0,178.3Z "/><path d="M260.3,299.9L264.4,296.8L267.3,297.0L268.5,289.7L273.2,277.5L279.2,274.6L279.2,274.6L279.1,274.3L282.7,263.0L280.8,260.0L285.3,252.6L292.7,248.4L286.9,244.4L285.6,241.2L287.7,236.4L292.4,231.1L292.8,230.9L292.7,230.4L297.6,227.3L299.3,225.4L295.7,222.3L295.8,222.2L295.7,222.2L286.9,223.4L277.7,219.5L269.9,209.2L272.5,204.8L266.9,199.1L265.0,199.7L262.1,195.8L252.2,199.7L250.3,201.8L239.7,203.8L234.3,199.6L229.3,198.6L227.5,201.1L218.5,192.1L213.7,191.9L206.8,186.8L203.7,181.6L199.8,180.0L191.0,185.6L191.0,185.7L191.2,185.7L197.6,191.5L197.6,195.6L202.9,200.0L203.8,204.4L203.8,204.4L212.4,214.4L215.0,231.4L214.1,233.2L219.2,241.4L223.1,250.5L220.9,264.7L222.5,268.6L224.0,266.9L232.8,269.6L231.0,275.6L239.5,279.2L242.4,284.1L248.8,290.4L248.9,295.8L245.2,297.5L247.3,299.9L250.3,298.2L260.3,300.0L260.3,299.9Z M217.9,271.5L206.3,274.4L205.5,278.2L218.3,280.2L217.9,271.5Z M236.7,299.0L238.4,301.9L238.3,300.8L236.7,299.0Z M194.2,260.3L192.7,260.1L193.3,262.6L194.2,260.3Z M212.8,300.6L211.8,302.4L213.4,301.9L212.8,300.6Z M204.0,286.6L202.0,287.0L202.1,287.5L204.0,286.6Z M246.0,306.5L245.3,306.6L245.6,307.8L246.0,306.5Z M236.9,288.5L236.6,288.3L236.6,288.4L236.9,288.5Z M223.3,272.2L223.3,272.0L223.2,272.2L223.3,272.2Z M220.3,271.7L220.4,271.6L220.4,271.6L220.3,271.7Z M230.1,275.8L230.0,275.7L230.0,275.7L230.1,275.8Z M215.8,279.9L215.8,279.9L215.8,279.9L215.8,279.9Z M204.5,287.1L204.5,287.1L204.5,287.1L204.5,287.1Z M246.9,300.0L246.9,299.9L246.9,299.9L246.9,300.0Z M192.6,261.3L192.5,261.3L192.5,261.3L192.6,261.3Z M218.2,271.3L218.2,271.2L218.2,271.3L218.2,271.3Z M238.5,301.0L238.5,301.0L238.4,301.0L238.5,301.0Z M202.3,299.8L202.3,299.8L202.3,299.8L202.3,299.8Z M214.3,273.6L214.3,273.6L214.3,273.5L214.3,273.6Z M237.5,289.6L237.5,289.6L237.5,289.6L237.5,289.6Z M220.3,271.5L220.3,271.5L220.3,271.5L220.3,271.5Z M203.5,284.9L203.5,284.9L203.4,284.9L203.5,284.9Z M215.3,280.1L215.3,280.1L215.3,280.1L215.3,280.1Z M217.5,280.4L217.5,280.4L217.5,280.4L217.5,280.4Z M217.2,280.2L217.2,280.2L217.2,280.2L217.2,280.2Z M215.8,280.0L215.8,280.0L215.8,280.0L215.8,280.0Z M247.3,289.8L247.4,289.8L247.4,289.8L247.3,289.8Z M247.3,289.7L247.4,289.7L247.4,289.7L247.3,289.7Z M247.3,289.8L247.3,289.8L247.3,289.8L247.3,289.8Z M204.7,205.0L204.7,205.0L204.7,205.0L204.7,205.0Z M250.1,299.2L250.1,299.2L250.1,299.2L250.1,299.2Z "/><path d="M292.8,230.9L292.4,231.1L287.7,236.4L285.6,241.2L286.9,244.4L292.7,248.4L285.3,252.6L280.8,260.0L282.7,263.0L279.1,274.3L279.2,274.6L279.5,274.8L282.6,278.6L281.0,283.1L293.2,286.8L295.4,294.1L296.9,294.1L302.2,299.7L309.4,295.6L312.1,296.7L320.6,290.3L320.4,287.4L329.2,286.1L332.8,281.1L332.9,280.6L332.8,280.6L335.6,277.1L327.3,270.2L324.5,273.0L318.1,257.5L319.5,253.9L314.7,244.2L315.7,240.2L310.4,241.0L305.4,237.3L297.7,234.1L299.3,230.9L292.8,230.9L292.8,230.9Z "/><path d="M314.9,210.7L314.2,212.9L311.1,218.7L304.4,213.7L304.4,214.0L304.1,214.8L301.3,214.5L301.3,214.6L298.4,216.4L297.9,218.9L295.7,222.1L295.8,222.2L295.7,222.3L299.3,225.4L297.6,227.3L292.7,230.4L292.8,230.9L292.8,230.9L299.3,230.9L297.7,234.1L305.4,237.3L310.4,241.0L315.7,240.2L314.7,244.2L319.5,253.9L318.1,257.5L324.5,273.0L327.3,270.2L335.6,277.1L332.8,280.6L332.9,280.6L333.2,280.6L335.6,281.3L339.8,282.8L339.9,282.8L340.0,282.7L346.0,279.8L348.1,276.6L353.1,275.9L355.0,273.6L363.0,271.3L363.0,271.2L359.9,259.9L350.7,234.3L346.8,230.5L343.0,230.7L336.8,227.1L318.1,211.8L315.1,210.7L314.9,210.7Z "/><path d="M357.5,366.0L363.1,361.0L361.7,355.4L366.0,352.3L366.5,352.3L366.7,351.9L368.4,346.7L364.9,339.7L364.8,339.6L364.8,339.6L353.0,332.7L347.4,335.1L343.2,331.8L341.2,327.4L334.1,322.9L327.1,320.8L325.9,317.7L330.2,312.1L334.7,314.4L339.8,311.3L334.6,305.9L331.0,297.9L332.3,290.2L341.3,288.5L339.6,283.5L339.9,282.8L339.8,282.8L335.6,281.3L333.2,280.6L332.9,280.6L332.8,281.1L329.2,286.1L320.4,287.4L320.6,290.3L312.1,296.7L309.4,295.6L302.2,299.7L296.9,294.1L295.4,294.1L293.2,286.8L281.0,283.1L282.6,278.6L279.5,274.8L279.2,274.6L279.2,274.6L273.2,277.5L268.5,289.7L267.3,297.0L264.4,296.8L260.3,299.9L260.3,300.2L269.8,307.9L275.2,318.0L279.5,319.6L291.9,333.0L292.3,336.4L300.9,342.1L309.5,353.4L318.3,355.3L322.9,358.2L327.9,366.2L332.4,363.1L339.7,362.4L349.5,367.1L351.5,363.9L357.1,365.6L357.5,366.0Z M310.3,336.4L310.5,337.2L310.3,336.8L310.3,336.4Z M327.5,380.7L327.7,380.2L327.4,380.2L327.5,380.7Z M344.5,390.7L344.4,390.5L344.4,390.7L344.5,390.7Z M325.1,382.5L325.2,382.4L325.2,382.3L325.1,382.5Z M318.6,383.3L318.6,383.2L318.5,383.2L318.6,383.3Z M318.6,381.9L318.6,382.0L318.7,382.0L318.6,381.9Z M323.6,385.3L323.6,385.2L323.5,385.2L323.6,385.3Z M318.7,383.2L318.6,383.2L318.7,383.2L318.7,383.2Z "/><path d="M363.0,271.3L355.0,273.6L353.1,275.9L348.1,276.6L346.0,279.8L340.0,282.7L339.9,282.8L339.6,283.5L341.3,288.5L332.3,290.2L331.0,297.9L334.6,305.9L339.8,311.3L334.7,314.4L330.2,312.1L325.9,317.7L327.1,320.8L334.1,322.9L341.2,327.4L343.2,331.8L347.4,335.1L353.0,332.7L364.8,339.6L364.8,339.6L364.8,339.6L372.3,337.7L374.7,330.6L379.1,326.8L385.9,330.7L387.7,335.2L399.8,319.8L399.8,317.4L399.5,317.3L388.3,307.4L378.9,297.8L364.5,277.1L363.1,271.3L363.0,271.3Z "/><path d="M399.8,317.4L399.8,319.8L387.7,335.2L385.9,330.7L379.1,326.8L374.7,330.6L372.3,337.7L364.8,339.6L364.8,339.6L364.9,339.7L368.4,346.7L366.7,351.9L366.5,352.3L366.6,352.4L369.3,356.2L374.8,350.1L388.2,356.1L399.1,354.9L400.6,352.5L403.2,353.8L410.1,350.2L410.1,350.2L410.0,350.1L407.1,346.8L407.7,341.4L413.9,339.1L413.7,330.6L415.0,325.2L414.8,325.1L408.9,320.9L404.4,319.9L400.3,317.6L399.8,317.4Z "/><path d="M357.5,366.0L363.1,361.0L361.7,355.4L366.0,352.3L366.5,352.3L366.6,352.4L369.3,356.2L374.8,350.1L388.2,356.1L399.1,354.9L400.6,352.5L403.2,353.8L410.1,350.2L410.1,350.2L410.5,350.5L414.3,353.8L413.0,358.7L422.0,363.7L419.1,368.9L422.4,372.0L427.8,371.6L433.5,374.0L433.5,374.0L433.7,374.2L433.7,380.3L429.9,384.5L425.7,384.0L426.4,388.7L434.5,403.7L434.7,406.4L441.4,411.8L445.6,421.1L444.5,421.5L439.6,431.2L439.5,431.1L438.7,429.4L428.4,433.9L411.7,422.6L408.6,421.4L410.5,414.3L410.0,409.4L406.0,401.6L401.8,396.9L394.6,398.2L392.6,399.9L382.3,400.5L388.3,395.7L388.1,393.6L382.1,388.8L376.7,389.6L369.8,389.0L367.6,381.0L364.4,377.0L358.0,366.5L357.5,366.0Z M362.4,392.1L366.4,394.8L362.0,395.3L362.4,392.1Z M379.2,403.2L376.5,403.9L377.1,403.2L379.2,403.2Z M368.8,392.2L367.6,392.8L368.6,391.5L368.8,392.2Z M386.7,401.8L386.7,401.9L386.7,401.8L386.7,401.8Z M384.2,401.6L384.2,401.5L384.2,401.5L384.2,401.6Z M407.1,420.3L407.1,420.2L407.1,420.2L407.1,420.3Z M369.6,389.9L369.5,389.9L369.5,389.9L369.5,389.9L369.5,389.9L369.4,389.9L369.4,389.9L369.4,389.9L369.4,389.9L369.4,389.9L369.4,389.9L369.4,389.8L369.4,389.8L369.4,389.8L369.4,389.8L369.4,389.8L369.4,389.8L369.4,389.8L369.4,389.8L369.4,389.8L369.4,389.8L369.4,389.8L369.4,389.8L369.4,389.8L369.5,389.8L369.5,389.9L369.5,389.9L369.5,389.9L369.6,389.9Z M386.5,402.0L386.5,402.0L386.5,402.0L386.5,402.0Z M378.9,404.4L378.9,404.4L378.9,404.4L378.9,404.4Z M387.8,393.6L387.8,393.5L387.8,393.5L387.8,393.6Z M378.9,404.4L378.9,404.3L378.9,404.3L378.9,404.4Z M379.1,404.2L379.1,404.2L379.1,404.2L379.1,404.2Z M424.5,432.7L424.4,432.7L424.5,432.7L424.5,432.7Z M388.4,395.4L388.4,395.4L388.4,395.4L388.4,395.4Z M375.2,389.7L375.2,389.7L375.1,389.8L375.2,389.7Z M374.7,389.3L374.7,389.3L374.7,389.3L374.7,389.3L374.7,389.3L374.7,389.3Z M377.3,388.2L377.4,388.2L377.3,388.2L377.3,388.2Z M377.3,388.2L377.4,388.2L377.3,388.2L377.3,388.2Z M377.4,388.2L377.4,388.2L377.3,388.2L377.4,388.2Z M387.9,393.1L387.9,393.1L387.9,393.1L387.9,393.1Z M371.5,390.4L371.5,390.4L371.5,390.4L371.5,390.4Z "/><path d="M491.6,409.1L485.1,404.6L484.7,391.5L471.7,392.7L463.3,384.4L460.2,380.3L453.3,378.2L454.8,374.9L451.9,371.2L447.8,369.0L444.4,371.6L436.5,371.5L433.5,373.9L433.5,374.0L433.5,374.0L427.8,371.6L422.4,372.0L419.1,368.9L422.0,363.7L413.0,358.7L414.3,353.8L410.5,350.5L410.1,350.2L410.0,350.1L407.1,346.8L407.7,341.4L413.9,339.1L413.7,330.6L415.0,325.2L415.7,325.3L429.7,325.9L442.0,324.9L453.9,323.0L459.3,328.8L459.7,332.0L450.5,339.8L447.5,344.1L449.9,349.9L461.9,356.4L478.0,364.0L495.9,369.9L509.0,376.8L514.6,381.8L539.0,392.8L543.3,399.1L548.0,402.1L559.2,411.9L562.9,419.6L562.1,424.9L558.9,433.5L558.3,439.8L550.5,437.4L542.9,431.2L537.1,415.8L528.4,412.8L521.3,413.4L507.3,408.2L501.1,401.8L496.6,403.6L491.7,408.9L491.6,409.1Z M480.7,389.4L481.3,389.5L481.3,389.3L480.7,389.4Z M429.3,314.8L429.4,313.7L429.6,313.5L429.3,314.8Z M504.1,405.4L503.7,405.8L503.5,405.6L504.1,405.4Z M430.1,313.9L430.1,313.7L430.7,313.5L430.1,313.9Z M539.3,426.2L539.6,426.4L539.4,426.6L539.3,426.2Z M430.3,313.3L430.3,313.1L430.3,312.8L430.3,313.3Z M536.0,415.0L535.8,414.8L535.7,414.6L536.0,415.0Z M440.0,307.5L440.2,307.7L440.2,307.7L440.0,307.5Z M535.1,414.3L535.0,414.3L535.1,414.2L535.1,414.3Z M504.8,406.2L505.0,406.3L504.7,406.1L504.8,406.2Z M430.0,313.8L429.9,313.7L430.0,313.6L430.0,313.8Z M460.0,330.2L460.0,330.1L460.0,330.1L460.0,330.2Z M540.1,426.1L540.2,426.1L540.1,426.2L540.1,426.1Z M456.0,323.9L455.9,323.9L456.0,323.8L456.0,323.9Z M536.1,415.1L536.1,415.1L536.1,415.1L536.1,415.1Z M531.2,389.3L531.2,389.3L531.2,389.3L531.2,389.3Z M539.2,392.0L539.2,392.0L539.2,392.0L539.2,392.0Z M547.2,435.5L547.1,435.5L547.1,435.4L547.2,435.5Z M539.1,392.0L539.1,392.0L539.1,392.0L539.1,392.0Z M563.1,422.6L563.1,422.6L563.1,422.6L563.1,422.6Z M540.7,392.7L540.7,392.7L540.8,392.7L540.7,392.7Z M547.3,435.6L547.3,435.6L547.3,435.6L547.3,435.6Z M538.1,392.1L538.1,392.1L538.1,392.1L538.1,392.1L538.1,392.1Z M562.1,424.4L562.2,424.4L562.1,424.4L562.1,424.4Z "/><path d="M444.6,437.8L447.1,433.7L455.3,433.7L457.1,438.0L469.4,437.2L472.3,431.4L473.0,424.4L482.7,425.3L482.7,425.4L486.4,420.0L487.5,416.7L491.6,409.2L491.6,409.1L485.1,404.6L484.7,391.5L471.7,392.7L463.3,384.4L460.2,380.3L453.3,378.2L454.8,374.9L451.9,371.2L447.8,369.0L444.4,371.6L436.5,371.5L433.5,373.9L433.5,374.0L433.7,374.2L433.7,380.3L429.9,384.5L425.7,384.0L426.4,388.7L434.5,403.7L434.7,406.4L441.4,411.8L445.6,421.1L444.5,421.5L439.6,431.2L439.6,431.2L441.0,432.7L443.4,435.4L444.6,437.8L444.6,437.8Z M481.3,389.5L481.3,389.3L480.7,389.4L481.3,389.5Z M442.8,435.4L442.8,435.3L442.8,435.3L442.8,435.4Z "/><path d="M444.6,437.8L447.1,433.7L455.3,433.7L457.1,438.0L469.4,437.2L472.3,431.4L473.0,424.4L482.7,425.3L482.7,425.4L481.3,427.3L482.4,434.0L477.0,442.6L479.4,451.8L489.2,453.2L497.2,459.6L506.7,464.9L504.9,473.4L506.9,476.0L508.9,486.7L505.4,493.5L496.3,492.2L484.9,498.4L481.2,505.5L482.2,506.9L483.2,521.4L478.6,526.4L471.3,531.0L466.0,538.2L465.2,544.2L461.9,550.2L447.0,550.8L443.1,533.4L450.6,527.5L454.0,519.3L454.7,515.2L450.5,509.7L455.5,507.0L462.1,505.8L465.7,503.2L466.8,494.3L462.8,489.5L459.6,482.0L456.9,467.1L455.8,464.4L450.5,458.6L445.4,442.5L445.2,438.7L444.6,437.8Z M445.7,440.7L445.3,440.5L445.5,440.4L445.7,440.7Z M446.8,550.6L446.8,550.6L446.8,550.7L446.8,550.6L446.8,550.6Z "/><path d="M300.1,560.4L303.0,548.8L302.4,547.5L312.1,542.3L312.4,538.4L314.9,538.7L317.3,544.7L327.5,544.3L329.2,538.0L332.3,538.8L339.2,535.8L343.4,542.9L347.7,541.7L352.8,547.8L362.1,549.3L370.7,545.9L382.4,547.7L393.4,545.3L400.3,541.6L402.9,538.3L410.5,536.8L417.7,540.6L437.9,529.8L440.6,532.4L423.8,562.5L422.7,571.3L419.0,576.0L419.4,585.5L425.9,588.9L429.1,601.3L430.7,603.2L422.5,608.7L420.8,618.2L422.1,622.4L419.6,623.8L407.2,620.3L402.2,620.3L391.5,614.9L386.9,606.1L382.8,601.9L373.8,598.5L367.1,599.5L358.2,595.7L350.0,588.8L337.5,583.0L334.1,578.8L329.2,576.6L325.6,576.8L316.9,572.1L310.3,573.3L307.4,568.7L303.4,567.6L300.1,560.4Z M278.5,614.1L282.2,617.5L276.4,616.0L278.5,614.1Z M411.8,517.9L411.8,522.5L409.1,520.1L411.8,517.9Z M407.5,514.6L404.6,516.0L405.0,514.7L407.5,514.6Z M422.8,503.6L423.0,501.3L423.9,501.7L422.8,503.6Z M283.3,548.8L282.4,550.6L282.4,550.4L283.3,548.8Z M395.2,516.2L393.2,515.2L393.8,514.7L395.2,516.2Z M300.5,554.3L300.2,557.0L299.9,555.5L300.5,554.3Z M319.3,668.6L319.3,669.7L318.4,669.7L319.3,668.6Z M416.1,512.1L416.2,511.0L416.9,511.4L416.1,512.1Z M422.4,621.8L422.4,621.5L422.7,621.4L422.4,621.8Z M301.1,555.3L301.0,555.2L300.7,554.8L301.1,555.3Z M335.4,536.5L335.6,536.5L335.6,536.7L335.4,536.5Z M299.0,549.1L299.0,549.1L298.9,549.1L299.0,549.1Z M293.9,553.2L293.8,553.2L293.8,553.1L293.9,553.2Z M299.4,549.1L299.3,549.0L299.3,549.0L299.4,549.1Z M302.6,547.8L302.2,547.7L302.2,547.7L302.6,547.8Z M420.5,615.7L420.5,615.8L420.5,615.7L420.5,615.7Z M418.5,511.2L418.5,511.1L418.5,511.2L418.5,511.2Z M304.7,689.3L304.6,689.2L304.7,689.2L304.7,689.3Z M427.9,555.6L427.9,555.7L427.8,555.6L427.9,555.6Z M427.5,604.9L427.4,604.9L427.4,604.9L427.5,604.9Z M293.3,553.2L293.3,553.1L293.3,553.2L293.3,553.2Z M293.7,553.4L293.7,553.3L293.7,553.3L293.7,553.4Z M418.4,511.3L418.3,511.3L418.3,511.2L418.4,511.3Z M304.0,544.8L304.0,544.8L304.1,544.7L304.0,544.8Z M418.2,509.8L418.2,509.8L418.2,509.7L418.2,509.8Z M412.8,621.9L412.8,621.8L412.8,621.8L412.8,621.9Z M411.0,524.9L411.0,524.9L411.0,524.9L411.0,524.9Z M363.7,598.5L363.7,598.5L363.7,598.5L363.7,598.5Z M300.8,556.2L300.7,556.2L300.8,556.2L300.8,556.2Z M301.3,563.6L301.3,563.7L301.3,563.7L301.3,563.6Z M418.2,511.5L418.2,511.4L418.2,511.4L418.2,511.5Z M303.3,688.2L303.3,688.1L303.3,688.1L303.3,688.2Z M392.8,616.5L392.8,616.5L392.7,616.5L392.7,616.5L392.7,616.5L392.7,616.5L392.8,616.5Z M328.2,540.1L328.2,540.1L328.1,540.1L328.1,540.1L328.2,540.1Z M302.7,547.6L302.7,547.7L302.7,547.7L302.7,547.6Z M426.1,590.5L426.1,590.5L426.1,590.5L426.1,590.5L426.1,590.5Z M300.1,560.4L300.1,560.4L300.1,560.4L300.1,560.4Z M300.8,558.8L300.8,558.8L300.8,558.8L300.8,558.8Z M420.3,586.3L420.3,586.3L420.3,586.3L420.3,586.3Z M313.2,538.3L313.2,538.3L313.2,538.3L313.2,538.3Z M293.0,552.6L293.0,552.6L293.0,552.6L293.0,552.6Z M292.7,552.0L292.7,552.0L292.7,552.0L292.7,552.0Z "/><path d="M119.0,396.8L118.2,390.3L116.6,388.3L125.8,382.4L131.1,383.9L135.0,383.5L141.2,379.0L148.1,375.8L154.8,368.1L162.0,365.1L161.0,361.1L166.0,361.6L166.5,363.8L173.2,367.9L173.3,369.8L178.8,369.6L175.9,375.1L182.6,376.3L182.4,384.3L184.9,384.9L188.2,404.8L179.2,418.8L181.6,426.3L183.6,427.8L182.2,431.2L181.3,441.2L178.5,463.0L177.3,465.7L177.7,472.2L172.3,483.3L162.8,476.5L154.5,476.0L150.9,478.7L148.9,488.9L142.5,494.5L136.7,490.9L131.7,493.3L132.2,489.7L130.2,484.4L127.3,483.3L122.4,487.1L126.0,480.0L122.0,473.6L124.7,467.9L123.3,465.9L128.0,443.9L128.9,445.9L132.3,438.4L130.6,435.7L127.0,437.5L126.1,430.2L129.6,426.1L128.1,411.4L126.5,404.5L119.0,396.8Z M119.3,476.2L118.9,480.6L116.7,479.8L119.3,476.2Z M172.0,363.6L173.2,360.7L173.5,363.5L172.0,363.6Z M174.9,361.9L175.4,362.4L174.1,365.1L174.9,361.9Z M185.4,380.5L185.7,380.9L183.3,382.2L185.4,380.5Z M172.2,365.0L172.7,363.9L172.8,364.1L172.2,365.0Z M185.2,383.1L185.4,384.1L184.5,383.2L185.2,383.1Z M171.2,358.1L171.3,358.7L170.6,359.2L171.2,358.1Z M169.6,358.0L170.3,358.7L169.3,358.4L169.6,358.0Z M121.0,374.9L120.7,374.9L121.2,374.4L121.0,374.9Z M180.5,371.4L179.9,371.6L180.1,371.6L180.5,371.4Z M172.7,483.8L172.9,484.2L172.5,484.1L172.7,483.8Z M176.1,481.5L176.0,481.1L176.0,480.9L176.1,481.5Z M171.1,358.1L170.8,357.9L171.1,357.8L171.1,358.1Z M120.0,475.7L119.9,475.4L120.1,475.6L120.0,475.7Z M181.7,377.2L181.8,377.0L181.8,377.1L181.7,377.2Z M172.1,359.0L171.9,358.9L172.1,358.7L172.1,359.0Z M116.6,395.3L116.3,395.4L116.4,395.3L116.6,395.3Z M178.7,368.8L178.6,368.7L178.7,368.6L178.7,368.8Z M136.5,492.3L136.4,492.1L136.6,492.1L136.5,492.3Z M175.4,365.5L175.4,365.3L175.5,365.4L175.4,365.5Z M148.5,373.8L148.4,373.7L148.5,373.7L148.5,373.8Z M172.6,363.5L172.6,363.7L172.5,363.5L172.6,363.5Z M182.1,434.0L182.2,434.2L182.1,434.2L182.1,434.0Z M179.3,372.1L179.2,372.0L179.4,372.0L179.3,372.1Z M116.8,397.4L116.8,397.2L116.8,397.2L116.8,397.4Z M162.8,361.1L162.7,360.9L162.7,360.9L162.8,361.1Z M184.8,384.7L184.7,384.9L184.8,384.8L184.8,384.7Z M188.2,402.4L188.2,402.3L188.4,402.2L188.2,402.4Z M165.1,361.0L165.0,361.0L165.1,360.9L165.1,361.0Z M169.0,364.7L168.9,364.7L169.0,364.6L169.0,364.7Z M178.9,368.7L178.9,368.6L178.9,368.6L178.9,368.7Z M175.8,380.5L175.8,380.4L175.9,380.4L175.8,380.5Z M182.7,383.0L182.6,382.9L182.7,382.9L182.7,383.0Z M176.0,480.7L176.0,480.6L176.1,480.7L176.0,480.7Z M122.5,371.6L122.4,371.6L122.5,371.5L122.5,371.6Z M178.8,368.5L178.7,368.4L178.7,368.4L178.8,368.5Z M181.4,382.4L181.4,382.5L181.3,382.5L181.4,382.4Z M187.2,383.3L187.2,383.2L187.2,383.2L187.2,383.3Z M176.0,380.2L175.9,380.2L176.0,380.2L176.0,380.2Z M186.3,394.0L186.3,394.0L186.4,394.0L186.3,394.0Z M120.4,374.8L120.3,374.7L120.4,374.7L120.4,374.8Z M171.7,364.5L171.6,364.4L171.7,364.4L171.7,364.5Z M179.3,378.2L179.3,378.2L179.3,378.3L179.3,378.2Z M170.8,358.1L170.7,358.0L170.8,358.0L170.8,358.1Z M178.7,368.9L178.6,368.9L178.7,368.9L178.7,368.9Z M119.8,476.0L119.8,475.9L119.8,475.9L119.8,476.0Z M170.6,359.3L170.5,359.3L170.6,359.3L170.6,359.3Z M144.1,493.5L144.1,493.4L144.1,493.5L144.1,493.5Z M173.9,363.0L174.0,363.1L173.9,363.1L173.9,363.0Z M176.5,380.4L176.5,380.5L176.5,380.5L176.5,380.4Z M173.1,484.2L173.0,484.2L173.0,484.2L173.1,484.2Z M176.1,480.6L176.1,480.6L176.1,480.5L176.1,480.6Z M178.9,369.2L178.9,369.2L178.9,369.2L178.9,369.2Z M176.1,480.5L176.0,480.4L176.0,480.4L176.1,480.5Z M181.7,380.7L181.7,380.6L181.8,380.6L181.7,380.7Z M120.0,436.5L120.0,436.5L120.0,436.5L120.0,436.5Z M121.1,375.0L121.1,375.0L121.1,375.0L121.1,375.0Z M126.1,427.1L126.0,427.1L126.0,427.0L126.1,427.1Z M172.9,484.3L172.9,484.3L172.9,484.3L172.9,484.3Z M181.1,380.4L181.1,380.4L181.1,380.4L181.1,380.4Z M124.9,490.1L124.9,490.0L124.9,490.1L124.9,490.1Z M177.0,373.4L176.9,373.4L176.9,373.4L177.0,373.4Z M125.8,409.7L125.8,409.6L125.8,409.6L125.8,409.7Z M173.7,364.2L173.6,364.2L173.6,364.2L173.7,364.2Z M123.2,397.5L123.1,397.5L123.1,397.5L123.2,397.5Z M141.3,494.3L141.2,494.3L141.2,494.2L141.3,494.3Z M171.8,361.5L171.8,361.4L171.9,361.4L171.8,361.5Z M169.2,362.6L169.2,362.5L169.2,362.5L169.2,362.6Z M118.9,376.5L118.9,376.4L118.9,376.4L118.9,376.5Z M138.7,492.3L138.6,492.3L138.7,492.2L138.7,492.3Z M120.7,374.7L120.7,374.7L120.6,374.7L120.7,374.7Z M175.5,365.3L175.5,365.3L175.5,365.3L175.5,365.3Z M124.8,480.8L124.8,480.7L124.8,480.7L124.8,480.8Z M181.1,380.5L181.1,380.5L181.1,380.4L181.1,380.5Z M142.9,494.3L142.9,494.3L143.0,494.3L142.9,494.3Z M174.2,362.8L174.2,362.7L174.2,362.7L174.2,362.8Z M168.4,364.0L168.3,364.0L168.3,363.9L168.4,364.0Z M169.3,359.3L169.3,359.3L169.4,359.2L169.3,359.3Z M165.1,360.8L165.1,360.8L165.1,360.8L165.1,360.8Z M169.3,358.8L169.3,358.8L169.3,358.8L169.3,358.8Z M179.5,371.7L179.5,371.6L179.5,371.7L179.5,371.7Z M141.2,494.3L141.2,494.2L141.2,494.2L141.2,494.3Z M172.0,359.3L172.1,359.3L172.1,359.3L172.0,359.3Z M175.8,380.4L175.8,380.4L175.8,380.4L175.8,380.4Z M182.3,434.0L182.3,434.0L182.3,434.0L182.3,434.0Z M176.9,363.5L176.8,363.5L176.8,363.5L176.9,363.5Z M181.5,380.5L181.5,380.4L181.5,380.5L181.5,380.5Z M182.6,382.0L182.6,382.0L182.6,382.0L182.6,382.0Z M179.2,370.7L179.2,370.7L179.2,370.6L179.2,370.7Z M170.4,359.2L170.4,359.2L170.4,359.2L170.4,359.2Z M174.3,365.8L174.3,365.8L174.3,365.8L174.3,365.8Z M159.8,366.1L159.8,366.1L159.8,366.1L159.8,366.1Z M125.8,482.2L125.8,482.2L125.8,482.1L125.8,482.2Z M166.7,362.2L166.8,362.2L166.8,362.2L166.7,362.2Z M173.8,363.9L173.8,363.9L173.8,363.9L173.8,363.9Z M181.5,380.4L181.5,380.4L181.5,380.4L181.5,380.4Z M170.1,361.6L170.1,361.6L170.1,361.6L170.1,361.6Z M179.2,459.4L179.2,459.4L179.2,459.5L179.2,459.5L179.2,459.5L179.2,459.5L179.2,459.5L179.2,459.5L179.2,459.5L179.2,459.5L179.2,459.4L179.2,459.4L179.2,459.4L179.2,459.4L179.2,459.4Z M170.8,357.8L170.8,357.8L170.8,357.8L170.8,357.8Z M170.1,361.6L170.1,361.6L170.1,361.5L170.1,361.6Z M182.3,434.0L182.3,434.0L182.3,434.0L182.3,434.0Z M180.1,371.4L180.1,371.4L180.1,371.4L180.1,371.4Z M178.3,380.4L178.3,380.3L178.3,380.3L178.3,380.4Z M172.9,484.1L173.0,484.1L172.9,484.1L172.9,484.1Z M150.2,488.8L150.1,488.8L150.1,488.8L150.2,488.8Z M124.5,401.7L124.5,401.7L124.5,401.7L124.5,401.7Z M117.3,476.4L117.3,476.4L117.3,476.4L117.3,476.4Z M184.8,384.8L184.9,384.8L184.9,384.8L184.8,384.8Z M176.9,363.3L176.9,363.4L176.9,363.4L176.9,363.3Z M170.5,359.5L170.5,359.5L170.5,359.5L170.5,359.5Z M172.1,360.0L172.1,359.9L172.1,359.9L172.1,360.0Z M169.4,358.8L169.4,358.8L169.4,358.8L169.4,358.8Z M129.8,425.1L129.8,425.1L129.7,425.0L129.8,425.1Z M181.2,380.3L181.2,380.3L181.2,380.3L181.2,380.3Z M181.3,380.5L181.3,380.5L181.3,380.5L181.3,380.5Z M172.0,359.3L172.0,359.3L172.0,359.3L172.0,359.3Z M176.9,363.5L176.9,363.5L176.9,363.5L176.9,363.5Z M159.8,366.1L159.8,366.1L159.8,366.1L159.8,366.1L159.8,366.1L159.8,366.1L159.8,366.1Z M129.7,424.9L129.7,424.9L129.7,424.9L129.7,424.9Z M129.8,424.9L129.8,424.9L129.7,424.9L129.8,424.9Z M176.5,380.5L176.5,380.5L176.4,380.5L176.5,380.5Z M155.1,476.6L155.1,476.6L155.1,476.6L155.1,476.6Z M119.5,396.0L119.5,396.0L119.5,396.0L119.5,396.0Z M127.1,382.1L127.1,382.1L127.1,382.1L127.1,382.1Z M123.1,369.4L123.1,369.4L123.1,369.4L123.1,369.4Z M172.0,363.6L172.0,363.6L172.0,363.6L172.0,363.6Z M122.6,396.3L122.6,396.3L122.7,396.3L122.6,396.3Z M184.8,384.8L184.8,384.8L184.8,384.8L184.8,384.8Z M178.2,374.6L178.2,374.7L178.2,374.7L178.2,374.6Z M119.0,396.8L119.0,396.8L119.0,396.8L119.0,396.8Z "/></g></svg>