<?xml version="1.0" ?><!DOCTYPE svg  PUBLIC '-//W3C//DTD SVG 1.1//EN'  'http://www.w3.org/Graphics/SVG/1.1/DTD/svg11.dtd'><svg enable_background="new 0 0 480 601" height="601px" style="stroke-linejoin: round; stroke:#000; fill: none;" version="1.1" viewBox="0 0 480 601" width="480px" xmlns="http://www.w3.org/2000/svg" xmlns:xlink="http://www.w3.org/1999/xlink"><defs><style type="text/css"><![CDATA[path { fill-rule: evenodd; }]]></style></defs><metadata><views><view h="601" padding="0.06" w="480.0"><proj flip="auto" id="robinson" lon0="0.0"/><bbox h="3344.5" w="5972.44" x="-2986.22" y="-1672.25"/></view></views></metadata><g class="default" id="mondo"><path d="M196.0,401.6L191.2,401.8L193.0,402.4L196.0,401.6Z "/><path d="M121.2,401.1L117.5,400.1L115.7,399.9L121.2,401.1Z "/><path d="M205.5,399.7L203.2,399.7L201.5,402.5L208.0,401.6L205.5,399.7Z "/><path d="M140.8,395.0L139.6,394.8L141.1,395.6L140.8,395.0Z "/><path d="M157.3,393.3L155.3,393.7L156.4,393.9L157.3,393.3Z "/><path d="M182.1,392.2L178.4,390.1L179.2,392.5L177.5,393.5L182.7,393.6L182.1,392.2Z "/><path d="M186.5,384.4L186.8,383.3L182.8,385.0L180.3,388.1L184.1,393.9L178.0,395.5L166.0,394.0L166.1,394.8L154.1,394.1L159.7,396.9L150.1,396.0L147.0,395.3L143.3,396.1L132.9,395.9L123.5,397.0L123.1,399.1L116.7,398.6L123.3,400.7L131.3,401.5L131.0,402.8L126.1,402.6L133.2,404.7L142.6,405.6L137.7,405.8L125.4,405.3L122.1,404.8L116.3,405.0L126.0,408.2L354.0,408.2L363.2,405.4L357.2,404.2L356.6,402.7L361.3,400.8L366.1,400.4L366.9,398.8L374.3,396.0L378.3,395.2L378.0,392.0L374.2,389.5L369.7,389.3L368.4,388.4L362.0,386.1L354.3,387.5L352.2,387.2L345.8,388.1L342.7,387.4L341.8,386.4L336.8,387.6L334.1,387.7L332.5,386.1L327.2,387.9L324.4,388.2L313.9,388.1L306.8,390.6L303.9,390.9L297.2,393.6L296.8,393.2L300.4,388.8L296.4,388.2L294.6,388.9L288.0,386.5L274.6,390.2L272.1,390.2L269.5,389.5L263.1,391.7L260.1,391.8L252.6,391.2L250.1,391.9L246.6,391.1L239.8,393.0L234.2,392.2L214.0,399.6L213.0,400.7L217.8,400.9L219.0,401.9L209.4,403.4L204.2,403.1L199.2,404.3L192.6,402.9L181.5,400.8L181.6,399.8L179.7,398.4L184.8,398.3L189.9,396.0L190.1,394.7L185.4,390.3L182.4,388.4L186.5,384.4Z "/><path d="M172.0,371.6L169.0,370.4L168.8,371.9L164.5,370.3L166.5,371.7L172.6,373.8L174.1,373.4L172.0,371.6Z "/><path d="M180.0,368.1L178.6,368.3L177.6,369.0L180.0,368.1Z "/><path d="M398.9,354.5L397.2,358.2L399.3,357.4L402.0,354.7L398.9,354.5Z "/><path d="M428.9,354.7L427.9,354.8L425.2,356.8L418.1,360.2L421.0,361.2L428.9,354.7Z "/><path d="M435.0,348.3L435.4,347.0L434.1,346.0L431.8,354.1L430.6,355.7L434.3,353.3L438.0,350.4L435.3,350.2L435.0,348.3Z "/><path d="M434.7,329.4L432.3,326.6L431.8,327.1L434.7,329.4Z "/><path d="M450.8,322.1L451.8,321.2L450.0,321.9L450.8,322.1Z "/><path d="M299.1,317.8L297.7,317.1L292.9,321.3L291.6,323.0L292.0,325.7L291.0,333.2L293.6,333.4L295.8,329.7L298.0,323.7L299.1,317.8Z "/><path d="M409.5,318.0L408.8,313.9L407.1,318.0L407.0,319.8L404.6,323.4L399.7,319.7L400.6,318.0L395.2,315.9L392.6,318.9L391.3,319.5L390.0,318.1L384.7,321.6L381.4,326.0L373.1,328.8L371.2,337.4L370.4,344.6L370.9,346.7L375.1,345.3L380.0,344.6L380.5,343.9L387.3,342.1L389.3,341.9L392.1,343.4L392.7,346.5L395.9,343.8L393.4,347.0L395.6,347.7L395.5,350.0L398.5,351.9L400.0,350.9L401.3,352.2L406.6,350.0L408.2,347.6L412.7,343.4L416.5,337.4L415.4,331.1L414.3,329.6L413.9,327.0L411.5,325.0L411.3,319.7L409.5,318.0Z "/><path d="M432.0,313.6L431.1,313.3L431.5,314.1L432.0,313.6Z "/><path d="M383.0,313.3L382.2,312.1L381.0,312.4L383.0,313.3Z "/><path d="M430.6,312.8L429.4,312.0L429.2,312.5L430.6,312.8Z "/><path d="M431.7,312.4L430.9,310.7L430.5,310.7L431.7,312.4Z "/><path d="M387.4,313.2L391.1,310.8L387.0,312.0L387.4,313.2Z "/><path d="M379.9,310.4L378.4,311.7L381.3,311.2L379.9,310.4Z "/><path d="M427.0,309.4L425.9,308.4L425.9,308.6L427.0,309.4Z "/><path d="M369.0,308.6L366.0,307.4L366.4,309.4L371.2,310.4L374.6,310.8L373.7,308.9L369.0,308.6Z "/><path d="M425.1,308.7L423.7,306.4L423.9,307.5L425.1,308.7Z "/><path d="M391.4,304.2L391.1,303.7L389.9,303.8L391.4,304.2Z "/><path d="M395.2,303.7L392.5,303.3L392.2,304.1L395.2,303.7Z "/><path d="M399.7,301.1L399.5,300.6L395.4,300.8L399.1,302.5L397.1,303.3L403.9,306.8L403.3,310.8L406.3,310.7L407.2,311.8L410.1,311.6L411.8,309.8L413.3,310.4L415.3,313.2L417.5,312.8L416.4,311.8L412.0,304.7L404.6,301.8L403.6,301.8L401.1,304.0L399.9,303.2L399.7,301.1Z "/><path d="M389.1,297.6L387.7,298.3L383.9,297.7L382.9,298.7L381.3,303.3L383.1,307.0L384.0,303.0L384.7,306.0L386.4,305.8L384.6,302.1L386.8,300.3L384.6,300.8L383.1,299.2L389.1,297.6Z "/><path d="M393.2,298.0L391.7,298.1L392.0,299.9L393.2,298.0Z "/><path d="M365.7,307.4L365.7,302.8L363.1,300.5L363.6,299.4L361.0,296.7L359.8,296.7L355.9,292.4L353.3,292.1L357.4,297.0L358.2,299.3L362.0,305.2L365.7,307.4Z "/><path d="M380.3,297.0L379.6,295.1L381.7,292.2L378.1,291.2L374.4,295.3L369.8,297.7L371.1,303.5L373.3,304.2L374.7,303.7L376.6,305.0L378.0,304.4L378.7,301.5L381.7,298.3L380.3,297.0Z "/><path d="M389.9,288.2L388.8,287.4L386.9,288.4L387.6,291.2L389.0,292.0L389.9,288.2Z "/><path d="M336.5,291.1L337.1,289.4L335.0,286.3L334.6,288.4L336.5,291.1Z "/><path d="M167.8,285.9L167.0,285.0L167.0,285.5L167.8,285.9Z "/><path d="M386.9,285.6L385.1,286.4L385.9,287.3L386.9,285.6Z "/><path d="M388.4,283.1L387.1,284.0L387.9,285.8L388.4,283.1Z "/><path d="M383.6,281.9L383.1,281.4L382.1,281.4L383.6,281.9Z "/><path d="M382.2,274.6L381.6,277.9L383.0,281.1L384.1,280.9L386.7,282.6L386.3,280.9L383.2,278.0L383.9,276.5L382.2,274.6Z "/><path d="M149.8,275.4L148.3,274.6L148.1,274.9L149.8,275.4Z "/><path d="M155.1,272.7L155.2,274.3L152.7,274.8L156.2,275.8L158.3,273.5L155.1,272.7Z "/><path d="M369.3,274.3L367.2,273.4L367.4,274.6L369.3,274.3Z "/><path d="M57.8,273.8L58.8,273.2L57.4,273.8L57.8,273.8Z "/><path d="M57.7,271.7L57.6,271.3L57.3,271.8L57.7,271.7Z "/><path d="M147.3,268.8L143.7,268.9L147.5,270.4L149.9,272.0L150.7,270.9L147.3,268.8Z "/><path d="M150.0,267.5L149.5,265.5L149.1,266.4L150.0,267.5Z "/><path d="M381.0,268.8L380.6,265.4L379.9,266.4L381.0,268.8Z "/><path d="M150.2,263.7L148.9,263.4L148.9,263.9L150.2,263.7Z "/><path d="M151.1,263.7L150.7,263.7L150.6,264.4L151.1,263.7Z "/><path d="M391.6,253.5L389.7,255.1L390.6,255.4L391.6,253.5Z "/><path d="M278.7,251.4L276.2,252.2L276.5,252.7L278.7,251.4Z "/><path d="M266.5,251.4L269.4,252.3L269.5,251.9L266.5,251.4Z "/><path d="M257.2,247.9L253.9,248.0L253.8,248.7L256.8,250.1L257.2,247.9Z "/><path d="M250.0,243.9L249.3,246.6L250.7,246.6L250.0,243.9Z "/><path d="M396.8,249.4L394.0,243.7L393.0,243.9L394.1,246.3L393.0,249.8L391.9,249.2L391.9,251.6L388.6,251.7L389.2,254.8L387.7,253.8L390.0,253.2L396.2,252.8L397.3,252.1L396.8,249.4Z "/><path d="M394.3,240.0L393.2,239.6L391.2,241.1L393.5,243.4L393.1,242.0L395.4,242.9L396.9,241.2L394.3,240.0Z "/><path d="M175.7,233.6L173.7,232.4L173.3,232.5L175.7,233.6Z "/><path d="M111.1,234.3L110.3,232.0L107.7,232.4L111.1,234.3Z "/><path d="M182.3,231.5L181.9,230.7L177.8,235.5L181.0,235.5L183.9,236.8L184.5,233.4L181.2,232.6L182.3,231.5Z "/><path d="M387.6,231.4L385.0,228.8L382.8,228.1L387.3,232.9L390.7,237.7L390.7,236.7L388.6,233.3L390.5,233.7L387.6,231.4Z "/><path d="M233.1,229.4L234.4,226.5L233.3,225.7L230.3,227.4L229.8,230.0L233.1,229.4Z "/><path d="M252.5,225.2L252.2,224.5L252.0,226.2L252.5,225.2Z "/><path d="M90.6,223.3L92.1,222.3L89.5,222.8L90.6,223.3Z "/><path d="M237.1,221.4L234.4,222.4L234.0,223.7L235.2,226.2L236.9,228.0L235.4,227.9L234.6,229.8L236.3,232.1L239.2,231.4L241.7,228.8L240.5,228.6L236.9,224.7L237.8,223.6L236.0,222.7L237.1,221.4Z "/><path d="M82.4,219.8L82.3,219.2L81.1,219.4L82.4,219.8Z "/><path d="M166.2,217.0L165.8,216.7L165.1,217.6L166.2,217.0Z "/><path d="M164.2,216.3L163.1,216.1L162.0,216.7L164.2,216.3Z "/><path d="M82.7,215.1L83.4,216.0L84.5,215.8L82.7,215.1Z "/><path d="M163.5,212.8L159.9,215.3L161.1,215.9L164.3,215.2L165.7,214.3L163.5,212.8Z "/><path d="M227.1,211.9L223.0,212.1L221.5,212.7L218.9,212.1L220.2,214.3L219.2,214.8L223.7,215.2L226.4,214.4L227.1,211.9Z "/><path d="M84.4,211.7L84.1,209.0L77.2,213.6L80.6,213.0L83.1,214.2L87.7,211.4L84.4,211.7Z "/><path d="M157.3,208.8L154.0,208.5L154.8,209.0L157.3,208.8Z "/><path d="M162.1,208.4L160.4,205.7L158.7,206.5L158.5,208.9L153.6,210.4L146.0,209.4L144.0,210.8L135.8,208.1L131.5,207.4L120.9,209.0L117.4,207.7L105.4,206.8L96.0,209.1L94.6,209.7L94.5,211.8L89.0,212.8L91.8,214.4L91.0,215.3L88.3,215.8L84.4,218.3L84.0,219.9L85.5,219.7L86.7,222.7L75.5,226.5L82.1,225.2L90.8,222.0L95.3,220.0L99.2,219.7L100.0,218.8L106.4,220.2L107.2,221.5L110.3,222.0L109.4,225.3L109.1,231.3L111.9,234.8L109.9,234.5L106.5,240.6L103.7,245.1L104.6,252.1L107.4,255.0L108.9,263.6L111.2,263.6L109.2,259.4L109.2,257.2L111.2,257.5L111.1,259.0L114.9,266.4L115.8,267.5L116.5,272.0L118.6,274.8L126.3,278.4L130.1,278.5L133.1,280.8L136.2,281.8L138.5,286.1L139.6,286.1L140.9,288.1L146.2,287.4L148.1,291.6L147.3,295.9L144.7,298.5L143.2,305.9L143.5,307.8L146.2,310.8L148.8,316.0L151.4,320.1L157.5,324.2L158.2,328.3L158.4,336.8L159.0,343.2L158.6,349.6L159.9,357.7L161.2,356.6L161.6,359.3L160.3,358.9L160.1,362.2L161.8,362.6L161.2,364.9L163.8,369.6L167.0,371.2L169.4,369.6L168.9,367.6L171.0,364.2L168.5,361.8L170.1,360.1L170.5,357.3L169.0,354.9L172.1,354.4L171.2,351.9L174.6,351.8L176.1,351.0L175.9,347.1L175.0,345.9L178.3,346.6L179.5,345.8L180.7,342.9L182.2,341.3L186.1,332.0L191.2,330.5L192.4,327.7L194.2,320.6L194.0,318.1L198.3,311.6L198.8,309.4L198.1,306.9L192.4,303.4L190.7,303.4L187.1,302.4L186.5,301.6L182.2,301.2L182.1,299.8L179.9,296.9L177.1,292.2L174.6,291.4L172.1,291.5L168.0,287.9L167.9,286.9L165.7,285.5L162.2,285.8L158.5,284.1L155.5,284.7L155.2,282.7L153.1,284.4L150.6,285.2L148.9,287.9L145.7,286.5L142.5,287.1L140.8,284.2L141.0,278.4L136.1,277.2L136.7,274.5L138.7,270.8L134.6,271.2L128.8,274.5L127.6,274.1L126.3,268.6L127.7,263.5L129.0,261.3L131.6,259.8L135.2,259.5L136.7,260.3L137.7,258.8L141.4,258.5L145.1,261.0L145.5,264.6L146.9,265.5L147.7,263.3L147.1,258.1L149.0,255.7L153.0,253.0L155.1,249.6L155.5,247.2L157.0,247.7L156.9,246.2L159.5,244.3L162.6,243.5L165.9,240.3L168.5,239.2L169.7,240.8L175.0,238.6L172.9,238.0L171.8,234.9L173.1,234.0L168.2,234.6L168.8,233.6L171.5,232.1L176.3,232.3L183.4,229.6L183.8,228.1L179.3,224.2L180.0,223.4L178.8,219.2L174.6,221.9L174.5,218.4L172.9,218.3L171.4,216.7L167.4,216.8L164.5,221.1L165.2,222.1L163.9,224.9L160.8,227.0L160.3,229.1L158.1,230.8L157.2,229.6L158.3,225.7L151.4,223.0L149.9,223.3L150.4,221.2L149.1,221.0L153.2,217.2L156.2,216.0L163.7,211.8L164.4,212.1L169.8,208.8L166.7,208.0L162.8,211.0L161.2,209.6L162.1,208.4Z "/><path d="M146.1,204.4L145.5,204.2L139.8,206.1L139.8,206.8L142.9,207.2L139.6,207.9L141.4,209.5L153.6,207.8L152.6,207.3L152.8,204.9L149.3,206.0L146.1,204.4Z "/><path d="M154.4,204.1L152.4,204.0L152.9,204.8L154.4,204.1Z "/><path d="M177.2,204.4L174.0,203.8L173.7,204.2L177.2,204.4Z "/><path d="M168.8,204.3L164.9,205.3L164.1,207.0L167.3,207.9L173.7,208.1L175.9,210.9L173.4,212.6L169.8,213.2L169.2,214.5L171.9,214.3L176.0,216.8L178.3,217.3L177.0,215.1L179.8,216.4L180.5,215.5L179.3,212.1L182.2,213.6L183.8,211.3L180.3,209.3L182.2,208.7L177.6,206.3L175.7,204.8L174.5,205.2L172.9,203.7L168.8,204.3Z "/><path d="M158.2,203.6L157.1,206.4L160.0,205.0L158.2,203.6Z "/><path d="M163.0,204.8L165.0,203.3L163.3,203.3L160.4,205.5L163.0,204.8Z "/><path d="M138.7,206.3L145.4,204.0L138.9,203.1L138.8,203.8L134.7,205.7L138.7,206.3Z "/><path d="M360.7,202.3L356.4,201.9L356.8,202.2L360.7,202.3Z "/><path d="M165.0,202.4L163.3,202.0L162.3,202.5L165.0,202.4Z "/><path d="M355.3,201.8L351.5,201.2L349.4,202.1L352.0,202.8L356.0,202.6L355.3,201.8Z "/><path d="M163.1,200.6L158.5,201.8L161.3,202.4L163.1,200.6Z "/><path d="M154.8,201.1L149.6,200.8L146.8,202.3L154.8,202.4L154.8,201.1Z "/><path d="M288.8,207.0L286.7,206.1L287.3,203.1L289.2,202.1L293.9,200.8L288.1,201.1L284.5,202.3L283.4,206.2L288.8,207.0Z "/><path d="M166.5,200.2L165.8,202.6L173.8,203.0L176.2,202.0L168.9,201.5L166.5,200.2Z "/><path d="M150.6,199.7L145.6,200.4L149.4,200.4L150.6,199.7Z "/><path d="M323.2,200.3L320.2,199.6L311.7,201.7L309.5,203.0L310.6,203.5L305.8,203.8L306.8,205.0L303.4,206.3L301.4,206.2L304.9,209.0L305.6,211.5L303.6,212.1L302.8,208.9L300.4,206.3L300.0,204.8L296.4,206.7L300.1,209.4L299.9,210.0L291.9,208.0L289.9,209.6L286.7,209.9L287.3,209.2L282.4,210.7L281.2,211.6L277.8,209.4L279.5,211.5L273.8,214.4L271.8,214.3L271.2,212.5L275.7,212.1L275.3,210.2L271.6,208.9L269.1,208.6L263.8,206.5L258.2,207.5L252.9,210.3L251.1,212.6L244.7,217.2L245.5,221.4L246.8,222.0L249.9,220.3L252.8,225.5L256.2,221.2L257.2,221.0L256.1,218.0L256.5,216.3L261.4,212.4L262.4,213.7L260.5,215.0L260.1,217.6L261.8,219.9L266.6,219.0L267.7,219.6L262.4,220.7L263.6,223.4L261.0,222.9L261.1,225.7L257.5,226.1L254.2,227.5L249.9,226.4L250.2,224.4L244.8,228.4L243.9,230.3L241.7,231.1L241.4,232.2L238.3,234.2L235.2,234.1L235.3,235.1L238.7,237.6L238.0,241.0L229.9,241.5L230.3,242.1L230.1,249.8L234.0,251.0L237.6,250.0L240.1,247.2L240.9,244.2L242.3,243.9L243.3,241.5L247.0,241.4L251.0,240.4L251.4,241.6L254.9,243.9L257.8,246.9L259.1,244.3L255.2,241.9L253.1,238.5L255.9,238.9L258.3,241.3L260.5,242.5L265.8,250.4L266.7,248.7L265.9,244.6L268.9,245.3L270.7,240.6L270.8,239.1L273.6,237.2L275.3,237.5L275.6,239.5L277.0,237.3L279.4,236.3L280.1,239.4L284.8,242.0L284.1,244.2L280.2,243.7L278.2,242.8L274.0,244.1L271.9,243.9L269.6,246.9L270.8,250.1L273.2,250.8L275.3,250.1L278.0,250.7L278.7,249.9L280.2,251.8L279.0,257.4L276.0,257.2L273.0,257.9L264.4,255.3L262.5,256.7L262.8,257.7L257.9,257.2L257.3,256.0L251.7,254.0L250.6,249.1L245.9,250.0L241.6,250.1L233.0,252.1L228.8,257.5L229.1,259.2L226.6,261.6L225.5,261.7L221.4,267.5L220.7,269.6L221.1,275.1L219.7,279.4L220.4,283.1L222.7,285.7L224.6,289.0L230.5,293.6L234.5,292.5L237.7,293.2L245.1,291.0L247.0,293.8L250.1,293.1L251.2,294.5L250.5,301.0L254.2,306.3L256.1,315.7L254.8,317.8L253.7,322.0L256.7,330.0L256.7,331.6L257.9,337.0L260.7,342.2L260.3,343.4L261.2,345.9L262.5,346.4L266.6,345.0L267.8,345.3L271.0,344.3L274.2,341.5L277.3,337.6L277.7,334.2L281.1,332.0L280.5,327.1L283.9,323.2L287.2,321.2L287.9,314.0L286.5,310.9L287.1,305.4L287.9,303.0L291.4,299.1L294.2,296.7L297.8,292.3L298.7,290.3L300.5,283.3L292.3,285.4L288.6,280.0L286.9,278.7L283.4,272.8L283.4,271.2L281.3,268.4L281.4,267.3L279.4,264.3L279.0,262.2L280.4,261.7L283.5,266.8L284.7,267.6L285.7,270.8L290.1,276.9L290.2,279.0L300.3,279.0L301.6,277.4L304.4,276.7L308.3,272.0L309.6,269.1L305.3,265.9L305.2,264.0L302.7,267.0L300.1,267.1L299.6,264.7L298.7,265.2L296.2,262.2L297.2,258.9L303.2,263.8L305.7,263.2L306.4,264.8L311.2,265.7L316.8,265.2L322.3,271.4L324.7,270.7L326.5,277.9L327.8,279.8L330.8,287.5L332.0,288.8L334.6,285.5L334.5,278.1L336.6,276.6L339.5,273.2L345.2,270.1L346.4,268.8L350.6,275.0L350.8,277.9L354.8,277.8L356.4,281.8L356.9,288.2L360.6,295.8L363.2,297.8L362.4,292.1L360.0,290.3L358.4,287.1L357.7,287.0L358.2,281.4L364.7,287.9L369.2,283.8L369.1,281.4L363.7,273.8L363.9,272.9L366.5,270.2L369.2,270.7L374.8,268.8L377.6,266.4L379.8,261.5L378.5,256.8L375.3,253.2L373.8,252.5L375.0,250.1L376.4,249.7L373.9,248.4L373.1,249.4L370.8,248.1L371.1,246.5L372.8,244.2L373.3,245.8L376.4,245.6L378.0,246.3L381.2,249.7L380.5,250.0L382.3,253.2L384.9,251.5L380.1,245.8L381.7,244.3L381.1,243.4L385.3,241.0L386.2,234.4L383.7,229.5L380.0,227.0L374.6,226.3L376.4,220.9L384.6,220.3L385.5,221.2L387.0,220.0L387.0,217.9L388.9,217.5L391.4,219.0L392.5,216.5L393.9,218.3L393.3,222.1L394.0,225.4L400.8,231.1L401.4,228.2L400.3,226.8L401.3,226.1L400.5,224.5L395.7,219.8L398.4,219.9L399.7,219.0L402.1,219.8L404.5,216.6L406.6,216.8L401.1,214.1L402.4,214.2L395.9,209.0L385.7,207.7L387.3,209.3L384.3,208.3L377.1,208.1L372.7,206.7L369.5,206.9L364.5,205.4L356.0,204.7L357.5,206.2L351.3,206.9L349.4,206.5L345.9,204.5L343.8,203.9L341.6,204.5L337.1,203.9L328.7,203.2L330.3,201.5L326.7,200.6L323.2,200.3Z M293.5,243.8L289.9,239.5L293.9,236.3L296.5,238.6L294.7,238.6L295.4,241.4L299.8,244.2L297.8,244.3L299.4,246.9L299.9,249.6L298.2,250.0L294.6,248.8L294.3,245.3L293.5,243.8Z "/><path d="M167.7,199.8L166.1,199.5L165.9,199.7L167.7,199.8Z "/><path d="M157.0,198.7L154.7,198.8L154.5,198.9L157.0,198.7Z "/><path d="M163.9,199.0L161.1,198.1L161.7,199.0L163.9,199.0Z "/><path d="M319.9,199.0L315.9,198.1L316.1,199.4L319.9,199.0Z "/><path d="M253.6,197.7L247.8,197.7L252.4,200.5L254.4,198.8L256.2,198.4L253.6,197.7Z "/><path d="M258.7,197.0L252.8,197.1L257.2,198.0L258.7,197.0Z "/><path d="M315.3,198.5L314.4,197.6L308.2,196.5L313.8,198.6L315.3,198.5Z "/><path d="M175.3,197.7L173.1,196.3L168.7,197.3L169.4,199.0L172.2,199.0L175.3,197.7Z "/><path d="M191.9,194.8L181.9,195.0L173.1,198.9L174.5,199.8L169.9,200.8L179.3,200.5L180.3,199.4L192.8,196.1L191.2,196.1L191.9,194.8Z "/><path d="M221.1,194.5L209.6,194.7L206.6,195.5L195.0,195.9L189.8,197.3L191.5,197.6L184.5,198.9L186.0,201.3L191.7,201.2L193.9,202.7L194.7,205.0L193.2,206.0L196.4,207.9L192.3,211.0L192.0,212.3L193.8,217.9L197.4,219.6L200.4,217.3L200.3,216.4L204.2,213.1L207.5,212.5L211.2,210.4L215.8,209.6L218.4,208.7L217.5,207.6L221.5,207.1L219.9,205.0L224.4,201.2L224.9,199.7L226.9,197.3L230.8,195.9L223.2,196.4L225.3,195.1L221.1,194.5Z "/></g></svg>